<?xml version="1.0" standalone="no"?><!-- Generator: Gravit.io --><svg xmlns="http://www.w3.org/2000/svg" xmlns:xlink="http://www.w3.org/1999/xlink" style="isolation:isolate" viewBox="0 0 500 500" width="500" height="500"><defs><clipPath id="_clipPath_lQNQrj4Eyq4sY1klAPRLD082I4epW0lx"><rect width="500" height="500"/></clipPath></defs><g clip-path="url(#_clipPath_lQNQrj4Eyq4sY1klAPRLD082I4epW0lx)"><path d=" M 275.224 55.423 L 247.801 55.423 L 247.801 35.584 L 275.224 35.584 L 275.224 55.423 Z " fill="rgb(166,190,191)"/><path d=" M 305.859 289.404 L 189.744 289.404 L 189.744 329.665 L 305.859 329.665 L 305.859 289.404 Z " fill="rgb(166,190,191)"/><path d=" M 345.342 289.404 L 305.859 289.404 L 305.859 329.665 L 345.342 329.665 L 345.342 289.404 Z " fill="rgb(134,167,172)"/><path d=" M 62.93 222.34 C 62.607 222.34 62.346 222.079 62.346 221.757 L 62.346 183.014 C 62.346 173.361 54.495 165.509 44.841 165.509 C 35.189 165.509 27.336 173.361 27.336 183.014 C 27.336 183.336 27.075 183.597 26.753 183.597 C 26.431 183.597 26.169 183.336 26.169 183.014 C 26.169 172.718 34.546 164.341 44.841 164.341 C 55.138 164.341 63.513 172.718 63.513 183.014 L 63.513 221.757 C 63.513 222.079 63.252 222.34 62.93 222.34 Z " fill="rgb(53,60,70)"/><path d=" M 19.606 193.128 L 19.606 190.162 C 19.606 186.214 22.805 183.015 26.753 183.015 C 30.701 183.015 33.901 186.214 33.901 190.162 L 33.901 193.128 L 19.606 193.128 Z " fill="rgb(113,128,142)"/><path d=" M 442.981 222.34 C 442.658 222.34 442.398 222.079 442.398 221.757 L 442.398 183.014 C 442.398 172.718 450.773 164.341 461.07 164.341 C 471.365 164.341 479.741 172.718 479.741 183.014 C 479.741 183.336 479.48 183.597 479.158 183.597 C 478.836 183.597 478.573 183.336 478.573 183.014 C 478.573 173.361 470.722 165.509 461.07 165.509 C 451.416 165.509 443.564 173.361 443.564 183.014 L 443.564 221.757 C 443.564 222.079 443.303 222.34 442.981 222.34 Z " fill="rgb(53,60,70)"/><path d=" M 486.306 193.128 L 486.306 190.162 C 486.306 186.214 483.106 183.015 479.158 183.015 C 475.211 183.015 472.011 186.214 472.011 190.162 L 472.011 193.128 L 486.306 193.128 Z " fill="rgb(113,128,142)"/><path d=" M 247.801 65.05 C 247.479 65.05 247.218 64.789 247.218 64.467 L 247.218 35.584 C 247.218 35.261 247.479 35 247.801 35 C 248.123 35 248.384 35.261 248.384 35.584 L 248.384 64.467 C 248.384 64.789 248.123 65.05 247.801 65.05 Z " fill="rgb(53,60,70)"/><path d=" M 280.477 81.971 L 215.125 81.971 L 215.125 140.03 L 280.477 140.03 L 280.477 81.971 Z " fill="rgb(205,117,110)"/><path d=" M 267.349 71.469 L 228.254 71.469 L 228.254 81.971 L 267.349 81.971 L 267.349 71.469 Z " fill="rgb(115,74,84)"/><path d=" M 259.471 64.467 L 236.131 64.467 L 236.131 71.469 L 259.471 71.469 L 259.471 64.467 Z " fill="rgb(205,117,110)"/><path d=" M 273.62 95.975 L 265.743 95.975 L 265.743 140.03 L 273.62 140.03 L 273.62 95.975 Z " fill="rgb(88,84,103)"/><path d=" M 259.033 95.975 L 251.156 95.975 L 251.156 140.03 L 259.033 140.03 L 259.033 95.975 Z " fill="rgb(88,84,103)"/><path d=" M 244.445 95.975 L 236.569 95.975 L 236.569 140.03 L 244.445 140.03 L 244.445 95.975 Z " fill="rgb(88,84,103)"/><path d=" M 229.858 95.975 L 221.981 95.975 L 221.981 140.03 L 229.858 140.03 L 229.858 95.975 Z " fill="rgb(88,84,103)"/><path d=" M 305.859 226.388 L 189.744 226.388 L 189.744 289.404 L 305.859 289.404 L 305.859 226.388 Z " fill="rgb(150,94,107)"/><path d=" M 305.859 140.03 L 189.744 140.03 L 189.744 216.467 L 305.859 216.467 L 305.859 140.03 Z " fill="rgb(150,94,107)"/><path d=" M 305.859 216.467 L 189.744 216.467 L 189.744 226.388 L 305.859 226.388 L 305.859 216.467 Z " fill="rgb(252,235,169)"/><path d=" M 271.725 202.172 L 223.877 202.172 L 223.877 154.326 L 271.725 154.326 L 271.725 202.172 Z " fill="rgb(254,254,254)"/><path d=" M 289.23 82.556 L 206.373 82.556 C 206.05 82.556 205.79 82.294 205.79 81.971 C 205.79 81.649 206.05 81.388 206.373 81.388 L 289.23 81.388 C 289.552 81.388 289.813 81.649 289.813 81.971 C 289.813 82.294 289.552 82.556 289.23 82.556 Z " fill="rgb(53,60,70)"/><path d=" M 222.127 270.15 L 208.123 270.15 L 208.123 240.099 L 222.127 240.099 L 222.127 270.15 Z " fill="rgb(254,254,254)"/><path d=" M 254.803 270.15 L 240.799 270.15 L 240.799 240.099 L 254.803 240.099 L 254.803 270.15 Z " fill="rgb(254,254,254)"/><path d=" M 287.479 270.15 L 273.475 270.15 L 273.475 240.099 L 287.479 240.099 L 287.479 270.15 Z " fill="rgb(254,254,254)"/><path d=" M 247.801 277.443 L 247.801 277.443 C 258.999 277.443 268.077 286.521 268.077 297.719 L 268.077 329.665 L 227.525 329.665 L 227.525 297.719 C 227.525 286.521 236.603 277.443 247.801 277.443 Z " fill="rgb(252,235,169)"/><path d=" M 345.342 226.388 L 305.859 226.388 L 305.859 289.404 L 345.342 289.404 L 345.342 226.388 Z " fill="rgb(205,117,110)"/><path d=" M 345.342 162.202 L 305.859 162.202 L 305.859 216.467 L 345.342 216.467 L 345.342 162.202 Z " fill="rgb(205,117,110)"/><path d=" M 345.342 216.467 L 305.859 216.467 L 305.859 226.388 L 345.342 226.388 L 345.342 216.467 Z " fill="rgb(237,207,126)"/><path d=" M 420.809 289.404 L 345.342 289.404 L 345.342 329.665 L 420.809 329.665 L 420.809 289.404 Z " fill="rgb(44,83,98)"/><path d=" M 420.809 226.388 L 345.342 226.388 L 345.342 289.404 L 420.809 289.404 L 420.809 226.388 Z " fill="rgb(115,74,84)"/><path d=" M 420.809 183.208 L 345.342 183.208 L 345.342 216.467 L 420.809 216.467 L 420.809 183.208 Z " fill="rgb(115,74,84)"/><path d=" M 420.809 216.467 L 345.342 216.467 L 345.342 226.388 L 420.809 226.388 L 420.809 216.467 Z " fill="rgb(220,168,101)"/><path d=" M 332.603 270.15 L 318.599 270.15 L 318.599 240.099 L 332.603 240.099 L 332.603 270.15 Z " fill="rgb(254,254,254)"/><path d=" M 374.712 270.15 L 360.708 270.15 L 360.708 240.099 L 374.712 240.099 L 374.712 270.15 Z " fill="rgb(254,254,254)"/><path d=" M 405.443 270.15 L 391.438 270.15 L 391.438 240.099 L 405.443 240.099 L 405.443 270.15 Z " fill="rgb(254,254,254)"/><path d=" M 332.603 205.966 L 318.599 205.966 L 318.599 175.916 L 332.603 175.916 L 332.603 205.966 Z " fill="rgb(254,254,254)"/><path d=" M 150.26 289.404 L 189.744 289.404 L 189.744 329.665 L 150.26 329.665 L 150.26 289.404 Z " fill="rgb(134,167,172)"/><path d=" M 150.26 226.388 L 189.744 226.388 L 189.744 289.404 L 150.26 289.404 L 150.26 226.388 Z " fill="rgb(205,117,110)"/><path d=" M 150.26 162.202 L 189.744 162.202 L 189.744 216.467 L 150.26 216.467 L 150.26 162.202 Z " fill="rgb(205,117,110)"/><path d=" M 150.26 216.467 L 189.744 216.467 L 189.744 226.388 L 150.26 226.388 L 150.26 216.467 Z " fill="rgb(237,207,126)"/><path d=" M 74.795 289.404 L 150.26 289.404 L 150.26 329.665 L 74.795 329.665 L 74.795 289.404 Z " fill="rgb(44,83,98)"/><path d=" M 74.795 226.388 L 150.26 226.388 L 150.26 289.404 L 74.795 289.404 L 74.795 226.388 Z " fill="rgb(115,74,84)"/><path d=" M 74.795 183.208 L 150.26 183.208 L 150.26 216.467 L 74.795 216.467 L 74.795 183.208 Z " fill="rgb(115,74,84)"/><path d=" M 74.795 216.467 L 150.26 216.467 L 150.26 226.388 L 74.795 226.388 L 74.795 216.467 Z " fill="rgb(220,168,101)"/><path d=" M 162.999 270.15 L 177.003 270.15 L 177.003 240.099 L 162.999 240.099 L 162.999 270.15 Z " fill="rgb(254,254,254)"/><path d=" M 120.89 270.15 L 134.894 270.15 L 134.894 240.099 L 120.89 240.099 L 120.89 270.15 Z " fill="rgb(254,254,254)"/><path d=" M 90.161 270.15 L 104.164 270.15 L 104.164 240.099 L 90.161 240.099 L 90.161 270.15 Z " fill="rgb(254,254,254)"/><path d=" M 162.999 205.966 L 177.003 205.966 L 177.003 175.916 L 162.999 175.916 L 162.999 205.966 Z " fill="rgb(254,254,254)"/><path d=" M 420.809 329.665 L 434.521 329.665 C 443.919 329.665 451.539 337.285 451.539 346.684 L 451.539 346.686 C 451.539 356.084 443.919 363.703 434.521 363.703 L 307.803 363.703 C 304.689 363.703 302.163 366.229 302.163 369.344 L 302.163 369.344 C 302.163 372.458 304.689 374.984 307.803 374.984 L 349.816 374.984 C 360.88 374.984 369.849 383.954 369.849 395.018 L 369.849 395.018 C 369.849 406.082 360.88 415.053 349.816 415.053 L 274.691 415.053 C 271.038 415.053 268.077 418.008 268.077 421.669 L 268.077 421.669 C 268.077 425.316 271.038 428.272 274.691 428.272 L 287.994 428.272 C 297.861 428.272 305.859 436.272 305.859 446.136 L 305.859 446.136 C 305.859 456.013 297.861 464 287.994 464 L 207.997 464 C 199.204 464 192.077 456.878 192.077 448.093 L 192.077 448.093 C 192.077 439.294 199.204 432.172 207.997 432.172 L 214.348 432.172 C 218.645 432.172 222.127 428.684 222.127 424.385 L 222.127 424.385 C 222.127 420.085 218.645 416.611 214.348 416.611 L 124.78 416.611 C 116.832 416.611 110.388 410.168 110.388 402.214 L 110.388 402.214 C 110.388 394.266 116.832 387.821 124.78 387.821 L 149.871 387.821 C 155.995 387.821 160.957 382.858 160.957 376.735 L 160.957 376.735 C 160.957 370.612 155.995 365.648 149.871 365.648 L 68.862 365.648 C 58.926 365.648 50.871 357.593 50.871 347.657 L 50.871 347.657 C 50.871 337.72 58.926 329.665 68.862 329.665 L 420.809 329.665 Z " fill="rgb(93,167,166)"/><path d=" M 410.597 314.787 C 410.597 321.877 404.849 327.623 397.76 327.623 C 390.67 327.623 384.923 321.877 384.923 314.787 C 384.923 307.697 390.67 301.949 397.76 301.949 C 404.849 301.949 410.597 307.697 410.597 314.787 Z " fill="rgb(168,207,71)"/><path d=" M 378.31 314.787 C 378.31 321.877 372.563 327.623 365.472 327.623 C 358.384 327.623 352.636 321.877 352.636 314.787 C 352.636 307.697 358.384 301.949 365.472 301.949 C 372.563 301.949 378.31 307.697 378.31 314.787 Z " fill="rgb(168,207,71)"/><path d=" M 346.023 314.787 C 346.023 321.877 340.276 327.623 333.186 327.623 C 326.096 327.623 320.35 321.877 320.35 314.787 C 320.35 307.697 326.096 301.949 333.186 301.949 C 340.276 301.949 346.023 307.697 346.023 314.787 Z " fill="rgb(168,207,71)"/><path d=" M 177.685 314.787 C 177.685 321.877 171.937 327.623 164.848 327.623 C 157.757 327.623 152.01 321.877 152.01 314.787 C 152.01 307.697 157.757 301.949 164.848 301.949 C 171.937 301.949 177.685 307.697 177.685 314.787 Z " fill="rgb(168,207,71)"/><path d=" M 145.397 314.787 C 145.397 321.877 139.651 327.623 132.561 327.623 C 125.471 327.623 119.724 321.877 119.724 314.787 C 119.724 307.697 125.471 301.949 132.561 301.949 C 139.651 301.949 145.397 307.697 145.397 314.787 Z " fill="rgb(168,207,71)"/><path d=" M 113.111 314.787 C 113.111 321.877 107.363 327.623 100.273 327.623 C 93.185 327.623 87.437 321.877 87.437 314.787 C 87.437 307.697 93.185 301.949 100.273 301.949 C 107.363 301.949 113.111 307.697 113.111 314.787 Z " fill="rgb(168,207,71)"/><path d=" M 442.592 162.202 L 442.592 162.202 C 441.088 162.202 439.868 163.422 439.868 164.926 L 439.868 336.863 L 445.315 336.863 L 445.315 164.926 C 445.315 163.422 444.096 162.202 442.592 162.202 Z " fill="rgb(113,128,142)"/><path d=" M 63.319 162.202 L 63.319 162.202 C 64.823 162.202 66.041 163.422 66.041 164.926 L 66.041 336.863 L 60.597 336.863 L 60.597 164.926 C 60.597 163.422 61.815 162.202 63.319 162.202 Z " fill="rgb(113,128,142)"/><path d=" M 247.801 179.415 L 238.757 179.415 C 238.112 179.415 237.59 178.894 237.59 178.248 C 237.59 177.604 238.112 177.081 238.757 177.081 L 246.634 177.081 L 246.634 164.926 C 246.634 164.28 247.157 163.758 247.801 163.758 C 248.447 163.758 248.969 164.28 248.969 164.926 L 248.969 178.248 C 248.969 178.894 248.447 179.415 247.801 179.415 Z " fill="rgb(53,60,70)"/><path d=" M 404.081 340.753 L 391.438 340.753 L 386.965 323.247 L 408.555 323.247 L 404.081 340.753 Z " fill="rgb(155,89,90)"/><path d=" M 371.794 340.753 L 359.152 340.753 L 354.678 323.247 L 376.268 323.247 L 371.794 340.753 Z " fill="rgb(155,89,90)"/><path d=" M 339.508 340.753 L 326.864 340.753 L 322.392 323.247 L 343.98 323.247 L 339.508 340.753 Z " fill="rgb(155,89,90)"/><path d=" M 171.169 340.753 L 158.526 340.753 L 154.052 323.247 L 175.641 323.247 L 171.169 340.753 Z " fill="rgb(155,89,90)"/><path d=" M 138.882 340.753 L 126.239 340.753 L 121.766 323.247 L 143.355 323.247 L 138.882 340.753 Z " fill="rgb(155,89,90)"/><path d=" M 106.595 340.753 L 93.953 340.753 L 89.479 323.247 L 111.069 323.247 L 106.595 340.753 Z " fill="rgb(155,89,90)"/></g></svg>