<?xml version="1.0" standalone="no"?><!-- Generator: Gravit.io --><svg xmlns="http://www.w3.org/2000/svg" xmlns:xlink="http://www.w3.org/1999/xlink" style="isolation:isolate" viewBox="0 0 1920 500" width="1920" height="500"><defs><clipPath id="_clipPath_S3mrEdnr50JSVbzkrugXmV9iwdWXQcoM"><rect width="1920" height="500"/></clipPath></defs><g clip-path="url(#_clipPath_S3mrEdnr50JSVbzkrugXmV9iwdWXQcoM)"><g><path d=" M -861.283 -10.157 C -813.247 -19.094 -804.035 -67.321 -803.047 -73.022 C -803.047 -73.484 -803.047 -73.792 -803.212 -74.1 L -806.338 -79.955 L -817.36 -100.602 L -828.382 -121.249 L -831.507 -127.104 C -831.672 -127.412 -832.001 -127.72 -832.33 -127.874 C -837.923 -130.648 -884.643 -152.527 -921 -121.711 C -922.316 -120.633 -921.493 -118.475 -919.684 -118.321 C -911.623 -117.859 -895.501 -116.627 -888.098 -113.237 C -886.453 -112.466 -886.782 -110.001 -888.592 -109.693 C -899.285 -107.382 -927.745 -98.753 -942.221 -72.405 C -960.317 -39.586 -955.382 -35.734 -955.382 -35.734 L -954.559 -36.042 L -955.382 -35.734 C -955.382 -35.734 -954.888 -29.571 -916.065 -23.716 C -884.808 -18.939 -860.625 -35.118 -852.235 -41.743 C -850.755 -42.822 -848.452 -41.743 -848.781 -40.049 C -850.261 -32.344 -858.816 -19.556 -863.257 -13.239 C -864.244 -11.852 -862.928 -10.003 -861.119 -10.311 L -861.283 -10.157 Z " fill="rgb(78,78,78)"/><path d=" M -845.655 -32.807 C -811.602 -38.2 -806.502 -74.717 -806.173 -79.185 C -806.173 -79.493 -806.173 -79.801 -806.338 -80.109 L -817.36 -100.756 L -828.382 -121.403 C -828.546 -121.711 -828.711 -121.865 -829.04 -122.019 C -833.152 -124.331 -867.37 -142.358 -892.375 -120.016 C -893.362 -119.246 -892.704 -117.551 -891.388 -117.397 C -885.631 -116.781 -873.95 -115.394 -868.522 -112.466 C -867.206 -111.85 -867.535 -110.001 -868.851 -109.693 C -876.418 -108.152 -896.488 -102.605 -906.029 -82.883 C -917.874 -58.384 -914.09 -55.148 -914.09 -55.148 C -914.09 -55.148 -913.597 -50.988 -890.401 -45.75 C -888.921 -45.441 -887.276 -44.979 -885.466 -44.671 C -862.928 -40.049 -846.149 -51.759 -840.226 -56.535 C -839.239 -57.306 -837.594 -56.381 -837.759 -55.148 C -838.581 -49.293 -844.339 -39.74 -847.3 -35.118 C -847.958 -34.039 -846.971 -32.653 -845.655 -32.807 L -845.655 -32.807 Z " fill="rgb(176,176,176)"/><path d=" M -899.285 -188.89 C -881.024 -186.579 -840.555 -177.334 -817.853 -162.697 C -817.524 -162.234 -817.031 -161.926 -816.702 -161.464 L -734.119 -230.492 C -748.431 -236.963 -796.303 -255.145 -845.326 -237.58 C -903.891 -216.625 -921.329 -191.664 -899.285 -188.89 Z " fill="rgb(41,41,73)"/><path d=" M -717.503 1.399 C -673.58 -24.64 -660.255 -70.711 -656.964 -85.81 L -766.527 -65.318 C -766.033 -65.318 -765.704 -65.472 -765.211 -65.472 C -765.211 -65.164 -765.046 -64.856 -765.046 -64.547 C -765.869 -38.816 -782.319 -2.453 -791.367 12.801 C -802.225 30.982 -770.475 32.831 -717.339 1.399 L -717.503 1.399 Z " fill="rgb(204,175,93)"/><path d=" M -801.896 -108.152 C -802.06 -108.46 -802.225 -108.768 -802.389 -109.077 L -802.389 -109.077 C -818.347 -139.43 -817.853 -155.147 -816.866 -160.693 C -823.282 -154.838 -830.027 -148.829 -836.936 -142.666 C -836.936 -142.666 -842.858 -130.186 -825.256 -97.212 C -807.654 -64.239 -793.342 -61.003 -793.342 -61.003 C -784.129 -62.39 -775.246 -63.777 -766.691 -65.164 L -766.033 -65.318 L -766.033 -65.318 L -765.869 -65.318 C -771.462 -67.937 -785.445 -77.336 -801.896 -108.152 L -801.896 -108.152 Z " fill="rgb(41,41,73)"/><path d=" M -717.503 1.399 C -673.58 -24.64 -660.255 -70.711 -656.964 -85.81 L -766.527 -65.318 C -766.033 -65.318 -765.704 -65.472 -765.211 -65.472 C -765.211 -65.164 -765.046 -64.856 -765.046 -64.547 C -765.869 -38.816 -782.319 -2.453 -791.367 12.801 C -802.225 30.982 -770.475 32.831 -717.503 1.399 L -717.503 1.399 Z " fill="rgb(41,41,73)"/><path d=" M -555.463 -130.648 C -545.428 -137.581 -536.38 -144.515 -527.99 -151.449 C -470.083 -199.83 -453.139 -246.054 -448.697 -262.078 C -451.658 -264.698 -454.126 -267.625 -456.1 -271.169 L -456.1 -271.169 L -456.429 -271.631 C -456.594 -271.94 -456.758 -272.094 -456.758 -272.248 C -458.403 -275.175 -459.39 -278.257 -460.048 -281.338 C -475.348 -287.039 -513.513 -297.979 -570.762 -292.124 C -590.01 -290.121 -611.396 -286.269 -634.756 -279.644 C -672.428 -269.012 -703.027 -252.525 -733.625 -230.492 L -733.79 -230.492 L -786.597 -186.425 L -816.373 -161.464 L -816.208 -161.31 L -816.702 -160.848 C -817.689 -155.455 -818.347 -140.663 -804.035 -112.62 C -803.377 -111.234 -802.554 -109.693 -801.731 -108.306 C -785.281 -77.49 -771.133 -68.091 -765.704 -65.472 L -656.8 -85.964 L -656.8 -85.964 L -656.8 -85.964 L -656.8 -85.964 C -619.457 -95.672 -587.048 -108.922 -555.298 -130.802 L -555.463 -130.648 Z " fill="rgb(93,102,211)"/><path d=" M -421.389 -279.027 C -415.796 -283.958 -413.986 -287.964 -415.138 -289.967 L -415.302 -290.275 L -415.302 -290.275 C -416.289 -291.662 -418.757 -292.432 -422.705 -292.278 C -424.35 -292.278 -426.16 -292.124 -428.134 -291.816 C -435.537 -290.583 -448.204 -286.423 -459.719 -281.03 L -460.048 -281.184 C -459.39 -278.103 -458.403 -275.021 -456.758 -272.094 C -456.594 -271.786 -456.429 -271.631 -456.265 -271.477 C -454.291 -267.779 -451.658 -264.698 -448.533 -262.078 L -448.533 -262.078 L -448.533 -262.078 L -448.533 -262.233 C -438.498 -267.163 -428.792 -273.018 -423.034 -277.641 C -422.376 -278.103 -421.718 -278.719 -421.224 -279.181 L -421.389 -279.027 Z " fill="rgb(41,41,73)"/><path d=" M -549.87 -228.181 C -563.195 -250.985 -593.629 -259.921 -618.634 -248.211 C -644.297 -236.193 -654.826 -206.918 -641.994 -183.035 C -629.163 -158.999 -597.906 -149.446 -572.243 -161.464 C -567.472 -163.775 -563.195 -166.549 -559.411 -169.938 C -543.289 -184.268 -538.354 -207.226 -548.718 -226.794 C -549.047 -227.41 -549.376 -227.718 -549.705 -228.335 L -549.705 -228.335 L -549.87 -228.181 Z " fill="rgb(214,112,134)"/><path d=" M -456.265 -271.323 L -456.594 -271.323 L -456.758 -271.477 L -456.923 -271.631 L -456.923 -271.786 L -456.594 -271.94 L -456.429 -271.631 L -456.265 -271.323 Z " fill="rgb(162,164,167)"/></g><g><path d=" M -320.309 891.734 L -322.131 926.103 C -322.652 937.203 -331.763 945.762 -342.305 945.227 L -427.943 940.546 C -438.485 940.011 -446.684 930.516 -446.034 919.283 L -444.212 884.914 L -320.309 891.601 L -320.309 891.734 Z " fill="rgb(102,102,102)"/><path d=" M -566.162 416.185 C -559.914 295.425 -462.042 202.616 -347.38 208.767 C -232.719 214.919 -144.868 317.892 -151.115 438.652 C -153.328 481.58 -167.123 520.897 -189.119 553.661 L -189.119 553.661 C -252.111 652.489 -269.811 737.141 -269.811 737.141 L -374.191 731.524 L -478.571 725.907 C -478.571 725.907 -487.551 639.784 -540.001 534.805 L -540.001 534.805 C -558.483 499.901 -568.244 459.247 -566.031 416.319 L -566.162 416.185 Z " fill="rgb(140,171,239)"/><path d=" M -267.339 737.274 L -274.887 883.042 C -275.147 889.193 -280.093 893.874 -285.69 893.473 L -478.961 883.042 C -484.558 882.774 -488.983 877.559 -488.593 871.407 L -481.044 725.64 L -267.339 737.274 Z " fill="rgb(176,176,176)"/><path d=" M -269.811 737.141 L -374.191 731.524 L -383.952 730.989 L -374.191 731.524 L -269.811 737.141 C -269.811 737.141 -269.811 737.007 -269.681 736.606 C -269.681 736.606 -269.681 736.606 -269.681 736.606 C -269.811 737.007 -269.811 737.141 -269.811 737.141 Z " fill="rgb(204,185,185)"/><path d=" M -269.811 737.141 L -374.191 731.524 L -383.952 730.989 L -478.571 725.907 C -478.571 725.64 -487.551 639.65 -540.001 534.805 L -540.001 534.805 L -540.001 534.805 C -556.791 503.244 -566.292 466.869 -566.292 428.355 C -566.292 424.343 -566.162 420.331 -566.031 416.319 C -565.25 402.277 -563.298 388.77 -560.305 375.531 C -513.191 486.929 -419.353 660.245 -269.681 736.606 C -269.811 737.007 -269.811 737.141 -269.811 737.141 L -269.811 737.141 Z " fill="rgb(129,153,205)"/><line x1="-478.701" y1="725.773" x2="-383.952" y2="730.989"/><path d=" M -214.888 548.713 C -198.099 521.565 -187.687 489.47 -185.865 454.833 C -180.399 349.453 -257.187 259.585 -357.272 254.102 C -360.395 253.969 -363.649 253.835 -366.773 253.835 C -421.566 253.835 -471.152 279.645 -504.731 320.834 C -472.064 267.877 -415.579 233.374 -352.196 233.374 C -349.072 233.374 -345.949 233.508 -342.695 233.641 C -242.61 239.124 -165.952 328.858 -171.288 434.372 C -173.501 478.236 -189.639 517.687 -214.888 548.713 Z " fill="rgb(131,155,209)"/><path d=" M -358.964 431.297 L -392.412 479.039 L -425.34 447.879 L -414.537 729.25 L -425.34 728.716 L -437.053 421.668 L -393.974 462.322 L -357.662 410.568 L -327.598 467.27 L -279.963 429.826 L -323.173 734.332 L -333.845 733.664 L -294.41 455.235 L -330.982 483.987 L -358.964 431.297 Z " fill="rgb(71,78,187)"/><path d=" M -319.268 706.516 L -323.173 734.332 L -333.845 733.797 L -329.029 699.428 C -325.776 701.835 -322.522 704.243 -319.268 706.516 L -319.268 706.516 Z " fill="rgb(65,75,170)"/><path d=" M -418.963 613.439 L -414.537 729.384 L -425.21 728.849 L -430.155 599.932 C -426.511 604.479 -422.737 609.026 -418.963 613.573 L -418.963 613.439 Z " fill="rgb(65,75,170)"/><path d=" M -270.592 800.396 L -269.291 773.516 L -482.866 761.881 L -484.298 788.895 L -270.592 800.396 Z " fill="rgb(127,127,127)"/><path d=" M -273.586 857.9 L -272.154 831.02 L -485.859 819.386 L -487.291 846.266 L -273.586 857.9 Z " fill="rgb(127,127,127)"/><path d=" M -389.289 824.601 L -485.859 819.385 L -484.298 788.761 L -424.689 791.971 C -412.846 804.274 -401.002 815.106 -389.289 824.601 Z " fill="rgb(142,142,142)"/><path d=" M -482.866 761.881 L -481.044 725.64 L -477.66 725.773 C -468.55 739.414 -459.179 751.985 -449.808 763.619 L -482.866 761.881 Z " fill="rgb(142,142,142)"/><path d=" M -285.69 893.606 L -478.961 883.175 C -484.558 882.908 -488.983 877.692 -488.593 871.541 L -487.291 846.399 L -347.771 854.022 C -320.309 870.471 -295.191 880.233 -275.408 885.984 C -276.839 890.664 -280.874 894.008 -285.69 893.74 L -285.69 893.606 Z " fill="rgb(142,142,142)"/><path d=" M -424.819 792.104 L -484.428 788.895 L -482.996 762.015 L -449.938 763.753 C -441.609 773.917 -433.279 783.412 -424.819 792.104 Z " fill="rgb(102,102,102)"/><path d=" M -347.771 853.888 L -487.291 846.266 L -485.859 819.385 L -389.289 824.601 C -375.102 836.236 -361.046 845.864 -347.641 853.888 L -347.771 853.888 Z " fill="rgb(102,102,102)"/><path d=" M -445.253 905.776 C -422.346 931.586 -376.664 941.482 -361.437 944.023 L -427.813 940.413 C -438.355 939.878 -446.554 930.383 -445.904 919.149 L -445.253 905.642 L -445.253 905.776 Z " fill="rgb(78,78,78)"/><path d=" M -348.422 176.672 L -354.018 176.538 C -357.011 176.404 -359.484 173.863 -359.354 170.788 L -357.792 112.748 C -357.662 109.672 -355.189 107.131 -352.196 107.265 L -346.6 107.399 C -343.606 107.533 -341.133 110.074 -341.263 113.149 L -342.825 171.189 C -342.955 174.265 -345.428 176.806 -348.422 176.672 L -348.422 176.672 Z " fill="rgb(140,171,239)"/><path d=" M -440.828 186.835 L -446.294 190.179 C -448.767 191.65 -451.89 190.847 -453.322 188.306 L -482.606 137.756 C -484.037 135.215 -483.256 132.005 -480.784 130.534 L -475.317 127.191 C -472.844 125.72 -469.721 126.522 -468.289 129.063 L -439.006 179.614 C -437.574 182.155 -438.355 185.364 -440.828 186.835 Z " fill="rgb(140,171,239)"/><path d=" M -259.53 192.452 L -255.104 195.528 C -252.502 197.266 -248.987 196.598 -247.296 193.923 L -215.93 146.047 C -214.238 143.373 -214.888 139.762 -217.491 138.023 L -221.916 134.948 C -224.519 133.209 -228.033 133.878 -229.725 136.552 L -261.091 184.428 C -262.783 187.103 -262.133 190.714 -259.53 192.452 Z " fill="rgb(140,171,239)"/></g><path d=" M 170.247 1025.396 C 169.789 1025.961 169.056 1026.055 168.506 1025.584 C 162.549 1020.593 155.033 1018.333 147.334 1019.18 C 139.635 1020.028 132.761 1023.889 127.903 1030.011 C 123.046 1036.132 120.846 1043.854 121.671 1051.765 C 121.763 1052.425 121.213 1053.084 120.571 1053.178 L 120.479 1053.178 C 119.838 1053.178 119.38 1052.707 119.288 1052.048 C 118.371 1043.478 120.846 1035.19 126.07 1028.504 C 131.295 1021.817 138.81 1017.673 147.059 1016.732 C 155.4 1015.79 163.465 1018.333 169.972 1023.701 C 170.522 1024.172 170.614 1024.925 170.156 1025.49 L 170.247 1025.396 Z  M 68.878 1052.519 C 68.787 1052.613 68.603 1052.613 68.512 1052.613 C 68.053 1052.613 67.504 1052.33 67.32 1051.765 C 62.646 1038.016 48.073 1030.67 34.692 1035.19 L 34.508 1035.284 L 34.233 1035.379 C 33.592 1035.567 32.95 1035.284 32.675 1034.625 C 32.583 1034.248 32.583 1033.872 32.767 1033.589 C 30.292 1022.759 22.502 1013.812 12.145 1010.139 C -4.353 1004.3 -22.5 1013.341 -28.183 1030.387 C -28.366 1031.046 -29.1 1031.423 -29.741 1031.141 C -30.383 1030.952 -30.749 1030.199 -30.474 1029.54 C -24.334 1011.269 -4.903 1001.475 12.97 1007.785 C 23.876 1011.646 32.217 1021.064 35.058 1032.553 C 49.448 1028.409 64.662 1036.414 69.612 1051.106 C 69.795 1051.765 69.52 1052.519 68.878 1052.707 L 68.878 1052.519 Z  M 203.884 989.421 C 203.976 966.253 185.645 947.324 163.098 947.324 C 160.074 947.324 155.491 949.019 152.65 947.324 C 150.267 945.911 149.442 942.615 147.609 940.637 C 145.409 938.283 142.935 936.117 140.185 934.422 C 134.686 930.937 128.27 929.148 121.854 929.148 C 116.538 929.148 111.589 930.278 107.098 932.444 L 107.006 932.444 L 107.006 932.444 C 106.731 932.538 106.456 932.727 106.181 932.821 L 106.181 932.821 C 102.515 934.422 89.226 941.485 88.217 957.024 C 96.008 956.742 103.89 959.849 109.573 966.159 C 115.347 960.32 123.596 957.778 131.57 959.473 C 137.894 960.791 143.393 964.652 146.967 970.209 C 150.542 975.765 151.825 982.452 150.45 989.044 C 150.359 989.609 149.809 990.08 149.259 990.08 L 148.984 990.08 C 148.342 989.986 147.884 989.232 148.067 988.573 C 150.542 976.424 142.843 964.464 131.02 962.015 C 123.504 960.414 115.53 963.051 110.398 968.89 C 109.939 969.361 109.206 969.455 108.656 968.984 L 108.473 968.796 C 99.399 957.778 83.36 956.459 72.636 965.783 C 72.086 966.253 71.353 966.159 70.895 965.594 C 70.436 965.029 70.528 964.276 71.078 963.805 C 75.386 960.038 80.518 957.872 85.743 957.213 C 86.659 941.391 99.124 933.574 104.257 931.032 C 95.825 923.874 85.009 919.448 73.186 919.448 C 55.68 919.354 40.374 928.771 31.667 942.898 C 28.734 942.239 25.709 941.862 22.593 941.862 C 7.287 941.862 -7.103 950.432 -14.618 964.088 C -16.543 967.572 -17.734 971.151 -18.834 974.918 C -19.018 975.389 -19.109 975.86 -19.293 976.33 C -10.494 972.94 1.788 970.492 15.169 974.259 C 15.811 974.447 16.177 975.106 15.994 975.765 C 15.811 976.425 15.169 976.801 14.528 976.613 C -13.518 968.702 -36.615 989.138 -36.89 989.327 C -37.073 989.515 -37.257 989.609 -37.532 989.609 C -40.556 992.058 -43.306 994.789 -45.689 997.991 C -52.746 1007.503 -56.504 1019.275 -56.596 1031.235 C -56.687 1061.937 -32.491 1086.893 -2.612 1086.987 C 0.78 1086.987 4.354 1085.01 7.654 1086.14 C 5.912 1081.149 4.904 1074.933 6.92 1068.341 C 7.104 1067.681 7.837 1067.305 8.479 1067.493 C 9.12 1067.681 9.487 1068.435 9.303 1069.094 C 5.179 1082.655 15.444 1095.369 15.536 1095.463 C 15.628 1095.652 15.719 1095.84 15.811 1095.934 C 17.644 1098.194 19.569 1100.078 22.135 1101.679 C 29.192 1106.105 37.441 1108.554 45.782 1108.648 C 52.839 1108.648 59.438 1107.047 65.396 1104.128 L 65.67 1103.939 C 83.818 1093.486 86.568 1072.861 86.568 1072.579 C 86.659 1071.919 87.301 1071.448 87.942 1071.448 C 88.584 1071.543 89.042 1072.202 89.042 1072.861 C 88.951 1073.615 86.751 1090.566 72.728 1102.056 C 81.16 1112.038 93.533 1118.348 107.373 1118.348 C 114.155 1118.348 121.121 1116.371 127.537 1113.828 C 134.228 1111.097 139.177 1121.362 141.743 1125.788 C 145.501 1132.286 147.517 1140.291 152.925 1145.754 C 160.624 1153.57 169.056 1146.601 169.973 1136.995 C 170.522 1131.533 170.339 1125.977 169.698 1120.514 C 169.423 1117.783 168.873 1114.77 170.064 1112.133 C 171.531 1109.119 174.189 1109.59 177.03 1108.837 C 182.437 1107.518 187.57 1104.975 191.969 1101.397 C 200.86 1094.051 206.084 1082.844 206.084 1071.166 C 206.084 1066.646 205.351 1062.313 203.976 1058.264 C 202.143 1059.111 198.385 1060.43 193.161 1060.807 C 192.336 1060.901 191.511 1060.901 190.595 1060.901 C 183.904 1060.901 174.555 1059.017 164.198 1051.483 C 163.648 1051.106 163.557 1050.259 163.923 1049.694 C 164.29 1049.129 165.115 1049.034 165.665 1049.411 C 186.928 1064.856 203.976 1055.533 204.159 1055.439 C 204.251 1055.344 204.434 1055.344 204.526 1055.344 C 216.624 1049.506 224.965 1036.98 225.056 1022.289 C 225.056 1007.503 216.624 994.789 204.343 988.95 L 203.884 989.421 Z " fill="rgb(214,112,134)"/><g/><g><path d=" M 1230.853 103.819 C 1231.342 106.247 1232.032 108.652 1232.287 111.104 C 1233.357 121.382 1234.328 131.669 1235.27 141.959 C 1235.789 147.631 1236.228 153.312 1236.609 158.996 C 1236.787 161.656 1236.243 164.169 1234.262 166.313 C 1232.919 165.246 1232.431 163.815 1232.32 162.293 C 1231.279 147.941 1230.19 133.593 1229.319 119.23 C 1229.039 114.614 1229.349 109.96 1229.438 105.324 C 1229.447 104.822 1229.785 104.325 1229.971 103.826 C 1230.265 103.824 1230.559 103.821 1230.853 103.819 Z " fill="rgb(0,0,0)"/></g><g><path d=" M 1186.198 183.03 C 1184.08 182.442 1183.206 180.93 1182.528 179.357 C 1181.422 176.794 1180.466 174.165 1179.45 171.563 C 1176.017 162.764 1172.53 153.986 1169.172 145.16 C 1167.117 139.759 1165.259 134.281 1163.309 128.84 C 1162.952 127.842 1162.528 126.866 1162.232 125.851 C 1161.979 124.978 1161.865 124.065 1161.688 123.169 C 1161.919 123.065 1162.151 122.959 1162.381 122.855 C 1162.999 123.722 1163.763 124.522 1164.207 125.471 C 1166.568 130.532 1168.908 135.604 1171.142 140.722 C 1174.037 147.348 1176.91 153.988 1179.634 160.687 C 1181.96 166.4 1184.085 172.198 1186.25 177.977 C 1186.832 179.527 1187.004 181.144 1186.198 183.03 Z " fill="rgb(0,0,0)"/></g><g><path d=" M 1115.172 253.83 C 1114.016 255.479 1112.53 255.976 1110.849 256.2 C 1105.204 256.957 1099.557 257.711 1093.923 258.547 C 1088.006 259.425 1082.105 260.411 1076.19 261.312 C 1074.858 261.516 1073.501 261.674 1072.157 261.656 C 1070.41 261.634 1068.757 261.226 1067.438 259.446 C 1068.183 259.21 1068.676 258.99 1069.19 258.9 C 1074.032 258.055 1078.872 257.188 1083.727 256.412 C 1092.68 254.983 1101.64 253.589 1110.606 252.235 C 1112.236 251.988 1113.89 252.052 1115.172 253.83 Z " fill="rgb(0,0,0)"/></g><g><path d=" M 1290.537 105.693 C 1291.81 108.269 1290.998 110.39 1290.549 112.521 C 1289.436 117.796 1288.418 123.095 1287.201 128.346 C 1286.116 133.032 1284.872 137.684 1283.581 142.317 C 1282.992 144.433 1281.664 146.084 1279.592 147.02 C 1279.43 147.093 1279.224 147.075 1278.897 147.117 C 1277.805 146.052 1277.929 144.568 1278.415 143.429 C 1282.274 134.38 1282.853 124.476 1285.891 115.23 C 1286.849 112.311 1288.25 109.536 1289.485 106.712 C 1289.618 106.404 1289.996 106.203 1290.537 105.693 Z " fill="rgb(0,0,0)"/></g><g><path d=" M 1278.441 249.805 C 1279.744 250.243 1280.788 250.421 1281.654 250.91 C 1288.613 254.847 1295.558 258.81 1302.464 262.837 C 1305.127 264.389 1307.716 266.077 1310.266 267.81 C 1311.28 268.497 1312.236 269.372 1312.95 270.357 C 1313.3 270.84 1313.316 271.98 1312.971 272.434 C 1312.615 272.903 1311.632 273.082 1310.934 273.056 C 1310.311 273.034 1309.674 272.611 1309.094 272.276 C 1307.342 271.261 1305.566 270.274 1303.885 269.151 C 1296.351 264.116 1288.835 259.053 1281.34 253.959 C 1280.03 253.069 1278.641 252.136 1278.441 249.805 Z " fill="rgb(0,0,0)"/></g><g><path d=" M 1108.784 163.15 C 1109.96 163.733 1111.214 164.198 1112.299 164.919 C 1120.347 170.261 1128.367 175.643 1136.386 181.031 C 1140.313 183.672 1144.23 186.331 1148.124 189.02 C 1149.231 189.784 1150.323 190.608 1151.259 191.564 C 1151.625 191.939 1151.545 192.75 1151.669 193.362 C 1151.047 193.466 1150.351 193.797 1149.82 193.625 C 1148.828 193.302 1147.875 192.77 1147.004 192.179 C 1141.725 188.605 1136.424 185.057 1131.225 181.37 C 1124.605 176.677 1118.055 171.885 1111.522 167.073 C 1110.315 166.186 1109.325 165.002 1108.237 163.955 C 1108.419 163.686 1108.602 163.419 1108.784 163.15 Z " fill="rgb(0,0,0)"/></g><g><path d=" M 1138.688 358.128 C 1138.928 357.55 1139.071 356.901 1139.424 356.403 C 1145.13 348.375 1150.84 340.349 1156.622 332.376 C 1157.269 331.482 1158.288 330.786 1159.269 330.237 C 1159.738 329.976 1160.777 330.035 1161.1 330.378 C 1161.55 330.858 1161.813 331.78 1161.709 332.441 C 1161.6 333.134 1161.009 333.78 1160.547 334.384 C 1157.617 338.222 1154.806 342.164 1151.678 345.835 C 1148.304 349.794 1144.642 353.511 1141.065 357.296 C 1140.571 357.819 1139.854 358.129 1139.24 358.536 C 1139.056 358.4 1138.871 358.265 1138.688 358.128 Z " fill="rgb(0,0,0)"/></g><g><path d=" M 1224.459 294.28 C 1225.798 297.247 1227.268 300.163 1228.446 303.193 C 1230.819 309.298 1233.063 315.454 1235.293 321.612 C 1235.748 322.869 1236.065 324.223 1236.135 325.549 C 1236.165 326.12 1235.52 326.966 1234.961 327.248 C 1234.563 327.448 1233.564 327.094 1233.242 326.672 C 1232.553 325.776 1232.036 324.714 1231.612 323.653 C 1228.882 316.844 1226.731 309.849 1225.015 302.717 C 1224.655 301.219 1224.103 299.765 1223.754 298.266 C 1223.461 297.015 1222.974 295.714 1223.684 294.469 C 1223.941 294.406 1224.2 294.343 1224.459 294.28 Z " fill="rgb(0,0,0)"/></g><g><path d=" M 1312.45 219.623 C 1314.256 219.152 1315.885 218.517 1317.566 218.33 C 1322.047 217.832 1326.543 217.462 1331.043 217.196 C 1332.019 217.138 1333.125 217.565 1334.006 218.062 C 1334.933 218.585 1334.711 219.62 1333.691 220.028 C 1333.341 220.167 1332.944 220.242 1332.566 220.257 C 1326.618 220.489 1320.671 220.715 1314.721 220.916 C 1313.904 220.944 1312.948 221.144 1312.45 219.623 Z " fill="rgb(0,0,0)"/></g><g><path d=" M 1098.017 313.537 C 1097.924 313.563 1097.83 313.583 1097.738 313.612 C 1096.404 314.019 1094.773 314.459 1094.088 313.016 C 1093.313 311.385 1095.135 310.828 1096.147 310.043 C 1100.633 306.561 1105.176 303.151 1109.597 299.588 C 1111.634 297.945 1113.827 296.553 1116.01 295.152 C 1119.189 293.116 1122.254 291.003 1124.689 288.047 C 1125.862 286.624 1127.762 286.429 1129.125 287.282 C 1130.341 288.042 1130.789 289.591 1130.403 291.351 C 1130.12 292.633 1129.43 293.598 1128.523 294.524 C 1125.981 297.117 1122.81 298.784 1119.728 300.545 C 1114.631 303.457 1109.809 306.786 1104.869 309.94 C 1102.698 311.326 1100.658 313.02 1098.017 313.537 Z " fill="rgb(78,100,171)" fill-opacity="0.25"/></g><g><path d=" M 1207.85 128.953 C 1209.688 134.477 1210.314 140.279 1211.443 145.947 C 1212.13 149.397 1213.43 152.818 1213.246 156.46 C 1213.2 157.372 1213.028 158.152 1212.584 158.921 C 1211.396 160.981 1209.73 161.163 1208.307 159.191 C 1207.067 157.474 1206.059 155.581 1205.97 153.364 C 1205.946 152.787 1206.018 152.181 1205.869 151.638 C 1204.517 146.694 1203.978 141.609 1203.109 136.577 C 1202.269 131.715 1201.745 126.86 1201.754 121.935 C 1201.755 121.55 1201.683 121.16 1201.724 120.782 C 1201.84 119.766 1202.218 118.815 1203.297 118.582 C 1204.406 118.344 1204.675 119.415 1205.143 120.11 C 1206.317 121.849 1206.433 123.938 1207.036 125.866 C 1207.353 126.88 1207.581 127.924 1207.85 128.953 Z " fill="rgb(78,100,171)" fill-opacity="0.25"/></g><g><path d=" M 1255.823 145.485 C 1255.834 144 1255.784 142.555 1255.863 141.118 C 1256.29 133.468 1257.88 126.005 1259.682 118.592 C 1260.27 116.172 1261.33 113.864 1262.181 111.507 C 1262.492 110.645 1263.03 109.815 1263.989 109.927 C 1265.228 110.073 1265.592 111.083 1265.688 112.267 C 1266.061 116.827 1265.391 121.304 1264.694 125.78 C 1263.878 131.022 1263.168 136.276 1262.633 141.553 C 1262.454 143.305 1261.959 144.985 1260.945 146.417 C 1260.284 147.351 1259.366 148.284 1258.057 147.991 C 1256.797 147.708 1256.41 146.491 1255.823 145.485 Z " fill="rgb(78,100,171)" fill-opacity="0.25"/></g><g><path d=" M 1161.116 170.572 C 1161.431 172.139 1161.949 173.216 1161.634 174.419 C 1161.397 175.329 1160.929 176.074 1159.993 176.236 C 1159.211 176.371 1158.501 176.063 1158.04 175.294 C 1157.495 174.386 1156.777 173.573 1156.301 172.635 C 1151.787 163.717 1146.522 155.196 1142.302 146.121 C 1141.725 144.877 1141.398 143.583 1141.066 142.278 C 1140.914 141.676 1141.027 141.086 1141.55 140.724 C 1142.12 140.331 1142.695 140.633 1143.14 140.997 C 1144.416 142.043 1145.498 143.29 1146.423 144.641 C 1150.45 150.521 1153.927 156.731 1157.302 162.998 C 1158.712 165.614 1160.509 168.048 1161.116 170.572 Z " fill="rgb(78,100,171)" fill-opacity="0.25"/></g><g><path d=" M 1300.409 241.877 C 1301.238 241.695 1302.156 241.996 1303.048 242.373 C 1308.899 244.847 1314.766 247.284 1320.58 249.841 C 1322.248 250.575 1323.827 251.566 1325.325 252.614 C 1326.624 253.525 1327.191 255.238 1326.668 256.108 C 1325.915 257.355 1324.661 257.569 1323.383 257.341 C 1322.158 257.123 1320.916 256.814 1319.777 256.323 C 1316.24 254.802 1312.69 253.31 1309.354 251.339 C 1306.628 249.729 1303.644 248.564 1301.169 246.509 C 1300.345 245.825 1299.475 245.202 1299.093 244.167 C 1298.696 243.095 1299.173 242.226 1300.409 241.877 Z " fill="rgb(77,101,170)" fill-opacity="0.24705882352941178"/></g><g><path d=" M 1128.088 214.099 C 1127.41 214.049 1126.601 214.125 1125.878 213.912 C 1121.151 212.532 1116.229 211.927 1111.608 210.098 C 1108.652 208.93 1105.555 208.116 1102.506 207.191 C 1101.755 206.964 1101.008 206.759 1100.44 206.207 C 1099.927 205.711 1099.681 205.07 1099.871 204.356 C 1100.09 203.528 1100.726 203.496 1101.467 203.492 C 1105.438 203.469 1109.36 203.921 1113.231 204.74 C 1117.579 205.66 1121.9 206.71 1126.23 207.712 C 1127.763 208.066 1129.163 208.593 1130.047 210.069 C 1131.159 211.925 1130.326 213.797 1128.088 214.099 Z " fill="rgb(78,100,171)" fill-opacity="0.25"/></g><g><path d=" M 1200.831 327.77 C 1201.184 329.872 1202.506 332.55 1202.326 335.526 C 1202.304 335.907 1202.422 336.298 1202.392 336.677 C 1202.291 337.956 1201.63 338.878 1200.421 339.282 C 1199.114 339.718 1198.227 339.04 1197.485 338.012 C 1196.013 335.972 1195.607 333.538 1195.245 331.19 C 1194.734 327.874 1194.643 324.493 1194.403 321.137 C 1194.362 320.565 1194.466 319.983 1194.503 319.405 C 1194.559 318.534 1194.986 317.959 1195.847 317.744 C 1196.707 317.528 1197.354 317.827 1197.815 318.574 C 1198.371 319.477 1198.938 320.362 1199.191 321.425 C 1199.636 323.307 1200.154 325.17 1200.831 327.77 Z " fill="rgb(78,100,171)" fill-opacity="0.25"/></g><g><path d=" M 1246.116 282.548 C 1245.687 281.302 1245.802 280.325 1246.634 279.663 C 1247.574 278.914 1248.403 279.506 1249.209 280.122 C 1250.456 281.072 1251.478 282.24 1252.407 283.465 C 1254.03 285.608 1255.993 287.502 1257.174 289.977 C 1258.007 291.724 1257.897 292.921 1256.7 293.791 C 1255.612 294.582 1254.106 294.311 1252.845 292.983 C 1250.57 290.587 1248.824 287.811 1247.272 284.91 C 1246.82 284.065 1246.427 283.186 1246.116 282.548 Z " fill="rgb(78,100,171)" fill-opacity="0.25"/></g><g><g><path d=" M 1319.532 347.087 C 1317.015 347.873 1314.296 347.256 1311.602 347.368 C 1310.37 347.419 1309.095 347.151 1308.037 346.359 C 1307.41 345.889 1306.747 345.407 1306.852 344.507 C 1306.964 343.55 1307.585 342.905 1308.471 342.651 C 1310.044 342.201 1311.628 341.714 1313.243 341.487 C 1321.849 340.28 1330.2 337.961 1338.623 335.922 C 1345.543 334.249 1352.375 332.22 1359.431 331.064 C 1364.846 330.176 1370.268 329.225 1375.636 328.122 C 1383.844 326.436 1392.154 325.342 1400.315 323.362 C 1408.45 321.386 1416.635 319.598 1424.765 317.588 C 1430.942 316.06 1437.144 314.755 1443.44 313.767 C 1449.711 312.783 1455.911 311.319 1462.094 309.858 C 1463.396 309.55 1464.573 309.675 1465.785 309.764 C 1467.478 309.89 1468.696 310.867 1469.138 312.524 C 1469.573 314.15 1469.014 315.585 1467.821 316.743 C 1466.895 317.641 1465.707 318.174 1464.508 318.474 C 1460.961 319.36 1457.401 320.235 1453.803 320.865 C 1449.242 321.662 1444.659 322.372 1440.097 323.143 C 1435.657 323.894 1431.217 324.835 1426.84 326.02 C 1422.94 327.076 1418.943 327.767 1414.992 328.639 C 1410.199 329.698 1405.419 330.812 1400.617 331.831 C 1397.694 332.452 1394.761 333.079 1391.8 333.447 C 1387.388 333.997 1383.05 334.967 1378.672 335.687 C 1373.929 336.469 1369.201 337.428 1364.449 338.2 C 1358.455 339.176 1352.532 340.46 1346.608 341.776 C 1339.838 343.28 1333.008 344.511 1326.221 345.942 C 1324.051 346.4 1321.927 347.067 1319.532 347.087 Z " fill="rgb(77,101,170)" fill-opacity="0.24705882352941178"/></g><path d=" M 1472.775 315.594 C 1471.39 315.744 1470.335 315.906 1469.275 315.964 C 1467.391 316.066 1465.555 314.831 1464.999 313.161 C 1464.521 311.726 1465.45 309.884 1467.242 308.887 C 1468.252 308.326 1469.319 307.829 1470.486 307.698 C 1478.087 306.838 1485.296 304.312 1492.675 302.505 C 1496.693 301.52 1500.749 300.678 1504.797 299.814 C 1510.252 298.649 1515.707 297.48 1521.18 296.403 C 1523.543 295.937 1525.91 295.479 1528.275 295.038 C 1534.617 293.857 1540.897 292.37 1547.246 291.272 C 1550.851 290.647 1554.406 289.697 1558.067 289.385 C 1563.267 288.94 1568.385 287.859 1573.505 286.964 C 1580.041 285.82 1586.608 284.801 1593.11 283.396 C 1596.667 282.628 1600.327 282.161 1603.922 281.471 C 1608.078 280.674 1612.196 279.681 1616.32 278.722 C 1618.098 278.306 1619.834 277.707 1621.613 277.298 C 1622.546 277.084 1623.541 276.97 1624.489 277.047 C 1625.431 277.124 1626.472 277.372 1626.82 278.465 C 1627.131 279.442 1626.415 280.105 1625.854 280.749 C 1624.866 281.885 1623.472 282.436 1622.12 282.89 C 1614.729 285.377 1607.303 287.714 1599.578 289.034 C 1594.463 289.909 1589.421 291.216 1584.333 292.262 C 1581.599 292.824 1578.822 293.157 1576.075 293.679 C 1572.675 294.323 1569.276 295.061 1565.835 295.541 C 1558.966 296.502 1552.175 297.88 1545.403 299.392 C 1540.33 300.526 1535.164 301.247 1530.093 302.391 C 1522.863 304.022 1515.544 305.17 1508.319 306.856 C 1499.508 308.913 1490.775 311.256 1481.997 313.423 C 1478.823 314.206 1475.764 315.471 1472.775 315.594 Z " fill="rgb(77,101,170)" fill-opacity="0.24705882352941178"/></g><g><g><path d=" M 1787.199 166.252 C 1791.627 167.98 1792.768 171.804 1789.845 175.735 C 1786.676 179.993 1783.802 184.467 1780.283 188.471 C 1777.472 191.667 1774.853 195.03 1772.104 198.28 C 1770.162 200.578 1768.78 203.245 1767.098 205.714 C 1764.66 209.291 1762.401 212.992 1760.083 216.651 C 1757.507 220.717 1754.952 224.797 1752.385 228.869 C 1751.823 229.759 1752.108 230.463 1752.732 231.217 C 1754.451 233.293 1756.129 235.406 1757.783 237.535 C 1758.433 238.37 1759.071 239.24 1759.547 240.178 C 1761.199 243.445 1759.623 247.24 1756.057 247.851 C 1751.901 248.564 1747.751 249.384 1743.466 249.348 C 1737.192 249.297 1730.915 249.537 1724.643 249.727 C 1716.056 249.987 1707.478 250.25 1698.879 249.766 C 1693.493 249.463 1688.074 249.775 1682.672 249.694 C 1680.704 249.666 1678.78 249.826 1676.835 248.624 C 1674.134 246.953 1672.89 244.359 1671.983 241.755 C 1668.523 231.813 1665.747 221.66 1663.456 211.376 C 1662.722 208.08 1661.774 204.819 1660.717 201.611 C 1658.948 196.247 1657.952 190.761 1657.606 185.136 C 1657.498 183.399 1657.387 181.648 1657.061 179.943 C 1655.902 173.865 1660.377 170.074 1666.688 171.921 C 1668.924 172.577 1671.18 173.005 1673.466 173.399 C 1675.893 173.815 1677.557 172.998 1678.858 170.973 C 1681.357 167.083 1683.756 163.137 1685.977 159.081 C 1689.722 152.242 1693.437 145.384 1697.325 138.626 C 1698.42 136.722 1700.076 135.139 1701.474 133.41 C 1703.06 132.969 1703.493 133.715 1703.003 135.065 C 1702.542 136.334 1701.8 137.489 1701.065 138.626 C 1700.377 139.688 1699.748 140.778 1699.42 142.002 C 1699.213 142.772 1698.474 143.842 1699.601 144.253 C 1700.544 144.597 1701.115 143.562 1701.433 142.755 C 1704.237 135.62 1710.263 133.544 1717.096 132.727 C 1718.471 132.563 1719.495 133.247 1720.431 134.163 C 1722.626 136.31 1725.504 137.773 1727.641 139.664 C 1730.906 142.559 1734.754 142.479 1738.218 143.963 C 1741.766 145.486 1745.263 147.157 1748.925 148.394 C 1752.991 149.768 1756.634 152.001 1760.372 154.004 C 1764.969 156.47 1769.858 158.359 1774.293 161.133 C 1774.948 161.544 1775.699 161.853 1776.184 162.458 C 1777.282 163.825 1778.045 164.51 1780.304 163.837 C 1782.476 163.19 1784.924 165.247 1787.199 166.252 Z " fill="rgb(78,100,171)"/></g><g><path d=" M 1787.199 166.252 C 1785.384 166.476 1783.79 165.695 1782.215 165.026 C 1779.931 164.057 1779.965 163.981 1778.644 166.174 C 1778.458 166.158 1778.162 166.212 1778.104 166.119 C 1775.819 162.436 1772.208 160.66 1768.421 158.904 C 1762.594 156.204 1756.968 153.074 1751.216 150.208 C 1749.247 149.227 1747.214 148.261 1745.101 147.71 C 1742.758 147.099 1740.829 145.664 1738.538 144.946 C 1736.928 144.442 1735.286 143.783 1733.671 143.519 C 1731.889 143.227 1730.34 142.057 1728.39 142.356 C 1727.467 142.499 1727.389 141.952 1728.242 139.703 C 1727.027 140.568 1726.204 140.275 1725.298 139.509 C 1723.4 137.905 1721.309 136.552 1719.779 134.512 C 1719.258 133.817 1718.427 133.028 1717.335 133.317 C 1714.288 134.121 1710.906 134.034 1708.272 135.928 C 1705.858 137.664 1702.957 139.158 1702.465 142.643 C 1702.337 143.556 1701.621 144.139 1701.076 144.807 C 1700.373 145.666 1699.541 145.981 1698.567 145.244 C 1697.744 144.623 1697.776 143.893 1698.109 142.942 C 1699.1 140.108 1700.665 137.595 1702.305 135.127 C 1703.115 133.911 1702.464 133.636 1701.474 133.41 C 1702.311 132.543 1702.771 131.267 1704.135 130.978 C 1704.477 131.662 1703.669 132.959 1705.003 133.053 C 1706.265 133.142 1706.449 132.042 1706.51 131.053 C 1706.557 130.291 1706.641 129.538 1706.812 128.795 C 1707.442 128.115 1708.19 127.683 1709.144 127.682 C 1709.665 128.081 1710.301 128.285 1710.821 128.695 C 1711.386 129.138 1711.895 129.962 1712.726 129.577 C 1713.755 129.098 1713.033 128.057 1713.229 127.294 C 1715.055 127.085 1716.624 127.967 1718.278 128.484 C 1718.755 129.362 1719.168 130.399 1720.424 129.351 C 1723.13 129.827 1725.375 131.4 1727.717 132.635 C 1740.175 139.203 1752.553 145.92 1764.952 152.6 C 1765.368 152.823 1765.703 153.197 1766.075 153.501 C 1766.072 153.904 1765.079 154.141 1765.738 154.558 C 1766.34 154.937 1766.378 154.174 1766.56 153.802 C 1769.941 154.901 1772.826 156.986 1775.932 158.618 C 1779.225 160.347 1782.32 162.449 1785.523 164.354 C 1786.306 164.819 1786.859 165.425 1787.199 166.252 Z " fill="rgb(78,100,171)"/></g><g><path d=" M 1706.813 128.794 C 1707.716 129.885 1707.25 131.184 1707.173 132.336 C 1707.075 133.82 1705.152 134.59 1703.863 133.765 C 1702.235 132.724 1703.625 131.871 1704.135 130.979 C 1704.868 130.055 1705.578 129.102 1706.813 128.794 Z " fill="rgb(78,100,171)"/></g><g><path d=" M 1713.086 127.382 C 1714.03 127.991 1714.227 128.826 1713.818 129.837 C 1713.424 130.81 1712.501 131.299 1711.821 130.639 C 1710.867 129.71 1709.268 129.364 1709 127.771 C 1710.327 127.272 1711.687 127.135 1713.086 127.382 Z " fill="rgb(78,100,171)"/></g><g><path d=" M 1766.559 153.802 C 1766.942 154.268 1767.939 154.673 1767.239 155.349 C 1766.656 155.912 1765.624 156.1 1764.985 155.207 C 1764.618 154.694 1764.215 154.097 1764.448 153.346 C 1764.993 153.399 1765.535 153.449 1766.075 153.501 C 1766.257 153.569 1766.418 153.67 1766.559 153.802 Z " fill="rgb(78,100,171)"/></g><g><path d=" M 1720.28 129.439 C 1720.449 130.898 1719.339 131.099 1718.483 130.815 C 1717.332 130.433 1718.085 129.363 1718.134 128.572 C 1718.938 128.641 1719.657 128.92 1720.28 129.439 Z " fill="rgb(78,100,171)"/></g><g><path d=" M 1713.743 132.64 C 1713.575 132.585 1713.324 132.573 1713.269 132.463 C 1713.213 132.35 1713.353 132.141 1713.407 131.975 C 1713.573 132.03 1713.825 132.041 1713.881 132.152 C 1713.938 132.263 1713.798 132.472 1713.743 132.64 Z " fill="rgb(78,100,171)"/></g><g><path d=" M 1767.257 248.394 C 1765.756 246.832 1764.859 245.852 1763.912 244.922 C 1762.327 243.366 1760.658 241.893 1759.118 240.294 C 1756.738 237.825 1756.684 237.336 1758.525 234.603 C 1761.491 230.197 1764.52 225.835 1767.523 221.456 C 1774.841 210.787 1782.312 200.219 1789.408 189.405 C 1792.568 184.587 1795.107 179.338 1797.665 174.156 C 1799.319 170.805 1798.858 169.499 1795.996 167.132 C 1791 163.001 1785.707 159.343 1780.041 156.129 C 1766.438 148.412 1752.948 140.489 1739.503 132.496 C 1728.837 126.156 1717.638 120.98 1706.081 116.531 C 1703.745 115.633 1703.388 115.612 1701.837 117.537 C 1699.355 120.622 1696.949 123.774 1694.662 127.006 C 1690.314 133.152 1686.158 139.436 1681.759 145.546 C 1678.147 150.565 1674.273 155.394 1670.565 160.346 C 1668.713 162.819 1666.959 165.366 1665.192 167.902 C 1664.181 169.352 1663.052 170.217 1661.088 169.765 C 1659.218 169.332 1657.268 169.232 1655.351 169.016 C 1652.789 168.729 1650.224 168.473 1647.334 168.168 C 1647.365 170.529 1647.199 172.468 1647.448 174.351 C 1648.844 184.93 1651.641 195.178 1654.88 205.322 C 1657.674 214.067 1660.378 222.843 1663.076 231.618 C 1665.173 238.447 1666.756 245.434 1669.653 252.014 C 1670.483 253.899 1671.54 255.547 1673.465 256.112 C 1676.132 256.896 1678.921 257.761 1681.654 257.746 C 1697.022 257.656 1712.391 257.448 1727.715 255.972 C 1737.639 255.016 1747.536 253.945 1757.207 251.413 C 1760.36 250.589 1763.455 249.544 1767.257 248.394 Z  M 1659.942 166.072 C 1662.866 161.856 1665.374 157.968 1668.155 154.285 C 1673.569 147.109 1679.232 140.117 1684.609 132.913 C 1688.244 128.044 1691.486 122.884 1695.068 117.975 C 1696.533 115.967 1698.387 114.23 1700.152 112.457 C 1701.662 110.941 1703.544 110.656 1705.524 111.379 C 1707.609 112.139 1709.642 113.041 1711.724 113.812 C 1724.102 118.394 1735.559 124.769 1746.764 131.666 C 1755.067 136.777 1763.498 141.677 1771.812 146.771 C 1779.876 151.713 1787.902 156.716 1795.853 161.838 C 1797.767 163.074 1799.421 164.784 1801 166.459 C 1803.288 168.885 1803.41 171.743 1802.382 174.839 C 1800.605 180.194 1797.943 185.093 1795.137 189.953 C 1788.412 201.6 1780.225 212.266 1772.824 223.459 C 1769.587 228.356 1766.272 233.202 1762.92 238.18 C 1764.324 239.334 1765.715 240.36 1766.967 241.536 C 1768.438 242.914 1769.995 244.276 1771.136 245.911 C 1772.71 248.168 1772.158 250.73 1769.892 252.239 C 1768.466 253.191 1766.859 253.948 1765.236 254.518 C 1755.517 257.924 1745.452 259.699 1735.241 260.855 C 1717.436 262.869 1699.559 263.314 1681.672 263.573 C 1677.969 263.627 1674.394 262.692 1670.952 261.327 C 1667.903 260.12 1665.706 257.932 1664.652 254.895 C 1662.44 248.509 1660.367 242.071 1658.387 235.608 C 1655.384 225.813 1652.602 215.95 1649.556 206.168 C 1646.3 195.709 1643.721 185.11 1642.495 174.219 C 1642.25 172.048 1642.469 169.767 1642.833 167.596 C 1643.301 164.803 1644.651 163.648 1647.449 163.89 C 1650.8 164.181 1654.112 164.912 1657.437 165.483 C 1658.373 165.645 1659.29 165.917 1659.942 166.072 Z " fill="rgb(0,0,0)"/></g><g transform="matrix(0.805,0.593,-0.593,0.805,1725.939,88.142)"><text transform="matrix(1,0,0,1,5.59,124.8)" style="font-family:'Caveat';font-weight:400;font-size:130px;font-style:normal;fill:#000000;stroke:none;">to</text></g></g><g transform="matrix(0.925,-0.379,0.379,0.925,1086.201,140.277)"><text transform="matrix(1,0,0,1,4.57,149.883)" style="font-family:'Cedarville Cursive';font-weight:400;font-size:120px;font-style:normal;fill:#000000;stroke:none;">you</text></g><g><g><g><path d=" M 1323.614 152.907 C 1323.788 154.296 1322.559 156.009 1321.221 156.235 C 1319.94 156.453 1317.894 154.98 1317.672 153.682 C 1317.436 152.301 1318.876 150.326 1320.223 150.187 C 1321.62 150.042 1323.437 151.499 1323.614 152.907 Z " fill="rgb(0,0,0)"/></g><g><path d=" M 1331.177 171.764 C 1331.419 173.334 1330.227 175.093 1328.798 175.271 C 1327.504 175.433 1326.08 174.116 1325.828 172.527 C 1325.578 170.96 1326.587 169.514 1328.097 169.276 C 1329.56 169.043 1330.928 170.149 1331.177 171.764 Z " fill="rgb(0,0,0)"/></g><g><path d=" M 1359.533 102.645 C 1359.757 104.138 1358.993 105.277 1357.596 105.532 C 1355.862 105.847 1353.997 104.709 1353.777 103.202 C 1353.563 101.725 1354.572 100.426 1356.053 100.272 C 1357.824 100.087 1359.3 101.095 1359.533 102.645 Z " fill="rgb(0,0,0)"/></g><g><path d=" M 1458.498 169.263 C 1459.874 168.955 1461.07 169.864 1461.434 171.493 C 1461.771 173.004 1460.827 174.682 1459.473 174.98 C 1458.068 175.289 1456.745 174.372 1456.427 172.87 C 1456.055 171.114 1456.914 169.618 1458.498 169.263 Z " fill="rgb(0,0,0)"/></g><g><path d=" M 1438.116 182.701 C 1436.612 182.97 1435.27 182.068 1435.026 180.625 C 1434.796 179.255 1435.953 177.699 1437.438 177.38 C 1438.834 177.081 1440.231 178.049 1440.498 179.502 C 1440.757 180.906 1439.621 182.432 1438.116 182.701 Z " fill="rgb(0,0,0)"/></g><g><path d=" M 1433.63 88.926 C 1432.194 89.121 1430.687 87.927 1430.503 86.447 C 1430.318 84.963 1431.331 83.592 1432.722 83.442 C 1434.26 83.276 1435.761 84.428 1435.892 85.877 C 1436.02 87.285 1434.935 88.748 1433.63 88.926 Z " fill="rgb(0,0,0)"/></g><g><path d=" M 1469.279 105.653 C 1469.612 107.434 1468.828 108.579 1467.102 108.835 C 1465.503 109.072 1464.238 108.273 1463.945 106.843 C 1463.632 105.315 1464.621 103.918 1466.225 103.622 C 1467.804 103.331 1468.992 104.122 1469.279 105.653 Z " fill="rgb(0,0,0)"/></g><g><path d=" M 1344.625 108.73 C 1344.905 110.479 1344.205 111.565 1342.685 111.739 C 1341.313 111.897 1339.517 110.434 1339.362 109.031 C 1339.225 107.787 1340.103 106.637 1341.359 106.413 C 1343.293 106.069 1344.314 106.795 1344.625 108.73 Z " fill="rgb(0,0,0)"/></g><g><path d=" M 1356.554 189.957 C 1356.265 188.291 1357.178 186.991 1358.82 186.735 C 1360.296 186.504 1361.614 187.332 1361.805 188.609 C 1362.003 189.943 1360.811 191.819 1359.594 192.088 C 1358.139 192.409 1356.818 191.482 1356.554 189.957 Z " fill="rgb(0,0,0)"/></g><g><path d=" M 1342.603 188.694 C 1341.203 188.962 1339.738 187.948 1339.502 186.546 C 1339.27 185.164 1340.309 183.758 1341.756 183.498 C 1343.177 183.242 1344.585 184.234 1344.843 185.677 C 1345.103 187.122 1344.156 188.396 1342.603 188.694 Z " fill="rgb(0,0,0)"/></g><g><path d=" M 1401.272 186.833 C 1401.435 188.03 1400.229 189.752 1399.07 189.973 C 1397.652 190.244 1396.336 189.205 1396.196 187.699 C 1396.064 186.292 1397.092 184.712 1398.287 184.487 C 1399.455 184.267 1401.098 185.558 1401.272 186.833 Z " fill="rgb(0,0,0)"/></g><g><path d=" M 1451.334 87.933 C 1453.327 87.598 1454.139 88.778 1454.522 90.272 C 1454.836 91.491 1453.74 92.525 1452.103 92.791 C 1450.525 93.047 1449.184 92.214 1448.925 90.818 C 1448.683 89.507 1449.788 88.183 1451.334 87.933 Z " fill="rgb(0,0,0)"/></g><g><path d=" M 1408.791 85.469 C 1410.313 85.255 1411.793 86.16 1411.983 87.419 C 1412.191 88.803 1411.107 90.238 1409.737 90.395 C 1408.258 90.564 1406.676 89.598 1406.522 88.431 C 1406.335 87.01 1407.363 85.67 1408.791 85.469 Z " fill="rgb(0,0,0)"/></g><g><path d=" M 1467.411 154.022 C 1467.225 152.451 1468.173 151.177 1469.63 151.043 C 1470.976 150.92 1472.389 151.937 1472.529 153.13 C 1472.713 154.689 1471.583 156.141 1470.082 156.273 C 1468.667 156.399 1467.585 155.487 1467.411 154.022 Z " fill="rgb(0,0,0)"/></g><g><path d=" M 1373.555 99.072 C 1372.053 99.385 1370.879 98.659 1370.624 97.261 C 1370.355 95.772 1371.068 94.552 1372.411 94.21 C 1373.841 93.846 1375.491 94.726 1375.746 95.991 C 1376.027 97.372 1375.037 98.763 1373.555 99.072 Z " fill="rgb(0,0,0)"/></g><g><path d=" M 1471.685 128.058 C 1473.2 127.845 1474.341 128.595 1474.59 129.966 C 1474.871 131.515 1473.977 132.772 1472.478 132.936 C 1471.013 133.098 1469.639 132.086 1469.454 130.709 C 1469.269 129.33 1470.158 128.274 1471.685 128.058 Z " fill="rgb(0,0,0)"/></g><g><path d=" M 1320.719 136.22 C 1319.137 136.51 1318.037 135.819 1317.821 134.399 C 1317.618 133.055 1318.58 131.73 1319.883 131.562 C 1321.232 131.388 1322.797 132.255 1323.053 133.319 C 1323.35 134.556 1322.235 135.941 1320.719 136.22 Z " fill="rgb(0,0,0)"/></g><g><path d=" M 1382.355 189.53 C 1382.648 190.841 1381.833 192.103 1380.443 192.488 C 1379.339 192.795 1377.995 191.938 1377.679 190.726 C 1377.317 189.336 1378.265 187.841 1379.676 187.576 C 1380.812 187.361 1382.077 188.284 1382.355 189.53 Z " fill="rgb(0,0,0)"/></g><g><path d=" M 1415.867 185.207 C 1415.599 183.865 1416.284 182.726 1417.55 182.411 C 1418.824 182.094 1420.474 183.218 1420.657 184.529 C 1420.805 185.581 1419.751 187.067 1418.706 187.28 C 1417.459 187.535 1416.139 186.572 1415.867 185.207 Z " fill="rgb(0,0,0)"/></g><g><path d=" M 1395.007 91.756 C 1395.183 92.717 1394.092 94.211 1393.024 94.469 C 1391.909 94.741 1390.619 93.805 1390.383 92.556 C 1390.149 91.306 1391.143 89.901 1392.403 89.702 C 1393.525 89.525 1394.778 90.513 1395.007 91.756 Z " fill="rgb(0,0,0)"/></g><g><path d=" M 1328.215 120.314 C 1327.114 120.561 1326.106 119.956 1325.801 118.865 C 1325.452 117.615 1326.366 116.046 1327.581 115.808 C 1328.623 115.606 1329.999 116.535 1330.152 117.544 C 1330.307 118.582 1329.261 120.079 1328.215 120.314 Z " fill="rgb(0,0,0)"/></g></g><g transform="matrix(0.939,-0.344,0.344,0.939,1287.639,81.59)"><text transform="matrix(1,0,0,1,7.2,115.2)" style="font-family:'Caveat';font-weight:400;font-size:120px;font-style:normal;fill:#000000;stroke:none;">are</text></g></g><g transform="matrix(1,0,0,1,1474.641,44.43)"><text transform="matrix(1,0,0,1,2.42,105.6)" style="font-family:'Caveat';font-weight:400;font-size:110px;font-style:normal;fill:#000000;stroke:none;">born</text></g><g transform="matrix(0.979,-0.202,0.202,0.979,1278.441,193.907)"><text transform="matrix(1,0,0,1,9,144)" style="font-family:'Caveat';font-weight:400;font-size:150px;font-style:normal;fill:#000000;stroke:none;">create</text></g><g><path d=" M 186.72 455.51 C 190.625 455.51 194.519 455.58 198.424 455.57 C 197.295 440.97 197.425 426.38 197.425 411.73 C 193.491 411.86 189.576 411.93 185.661 412.28 C 186.181 426.65 186.66 441.13 186.74 455.51" fill="rgb(243,134,48)"/><path d=" M 186.93 455.54 C 186.887 457.063 187.479 458.536 188.564 459.606 C 189.649 460.676 191.129 461.247 192.652 461.182 C 194.15 461.236 195.603 460.664 196.662 459.603 C 197.721 458.542 198.291 457.088 198.234 455.59 C 198.24 452.416 195.686 449.831 192.512 449.798 C 189.217 449.698 187.02 452.275 186.93 455.54 Z " fill="rgb(243,134,48)"/><path d=" M 185.841 412.24 C 185.862 413.772 186.5 415.232 187.61 416.289 C 188.721 417.345 190.211 417.909 191.743 417.852 C 193.288 417.783 194.741 417.095 195.774 415.944 C 196.807 414.792 197.334 413.274 197.236 411.73 C 197.095 408.584 194.43 406.147 191.284 406.288 C 188.137 406.428 185.701 409.093 185.841 412.24 Z " fill="rgb(243,134,48)"/><path d=" M 193.78 421.237 C 193.601 425.491 193.78 429.855 193.95 434.09 C 194.12 438.324 194.16 442.418 194.399 446.622" fill="none" vector-effect="non-scaling-stroke" stroke-width="2.966" stroke="rgb(249,162,103)" stroke-linejoin="round" stroke-linecap="round" stroke-miterlimit="4"/><path d=" M 190.844 472.807 L 215.63 472.187 C 218.865 472.106 221.428 469.431 221.372 466.196 L 221.203 459.205 C 221.11 455.975 218.442 453.418 215.211 453.463 L 190.425 454.082 C 187.175 454.175 184.61 456.874 184.683 460.124 L 184.853 467.054 C 184.95 470.282 187.616 472.836 190.844 472.797" fill="rgb(64,100,175)"/><path d=" M 200.471 457.677 C 200.678 465.891 207.503 472.383 215.717 472.178 C 223.931 471.973 230.424 465.15 230.221 456.935 C 230.018 448.721 223.195 442.227 214.981 442.428 C 206.765 442.635 200.27 449.461 200.471 457.677" fill="rgb(64,100,175)"/><path d=" M 146.745 456.739 C 142.85 456.739 138.946 456.818 135.041 456.818 C 136.139 442.218 136.04 427.629 135.97 412.979 C 139.904 413.098 143.819 413.158 147.733 413.508 C 147.244 427.878 146.795 442.358 146.735 456.739" fill="rgb(243,134,48)"/><path d=" M 146.535 456.788 C 146.584 458.312 145.995 459.788 144.912 460.86 C 143.828 461.933 142.346 462.505 140.823 462.441 C 139.326 462.497 137.873 461.927 136.813 460.868 C 135.754 459.809 135.184 458.356 135.241 456.858 C 135.224 453.686 137.771 451.095 140.943 451.056 C 144.238 450.957 146.445 453.523 146.535 456.788" fill="rgb(243,134,48)"/><path d=" M 147.534 413.488 C 147.516 415.021 146.881 416.481 145.772 417.54 C 144.663 418.598 143.174 419.164 141.642 419.11 C 140.098 419.041 138.646 418.355 137.611 417.206 C 136.577 416.057 136.047 414.542 136.139 412.999 C 136.275 409.852 138.935 407.411 142.081 407.546 C 145.228 407.681 147.669 410.341 147.534 413.488" fill="rgb(243,134,48)"/><path d=" M 139.605 422.496 C 139.794 426.76 139.605 431.124 139.465 435.358 C 139.325 439.592 139.275 443.686 139.055 447.891" fill="none" vector-effect="non-scaling-stroke" stroke-width="2.966" stroke="rgb(249,162,103)" stroke-linejoin="round" stroke-linecap="round" stroke-miterlimit="4"/><path d=" M 142.66 474.065 L 117.874 473.496 C 114.634 473.419 112.062 470.744 112.112 467.504 L 112.272 460.573 C 112.354 457.336 115.026 454.766 118.264 454.811 L 143.06 455.38 C 146.296 455.462 148.862 458.135 148.812 461.372 L 148.652 468.363 C 148.565 471.596 145.895 474.16 142.66 474.115" fill="rgb(64,100,175)"/><path d=" M 133.004 458.956 C 132.877 464.977 129.136 470.329 123.524 472.516 C 117.913 474.703 111.536 473.294 107.369 468.946 C 103.201 464.599 102.063 458.168 104.485 452.654 C 106.907 447.14 112.413 443.628 118.434 443.756 C 122.38 443.845 126.13 445.499 128.857 448.353 C 131.584 451.208 133.065 455.029 132.974 458.975" fill="rgb(64,100,175)"/><path d=" M 191.563 320.256 C 192.941 323.611 194.3 326.977 195.668 330.332 C 219.984 320.046 238.549 303.129 254.227 282.108 Q 249.773 278.973 245.24 275.917 C 228.932 295.54 215.67 310.389 191.523 320.256" fill="rgb(243,134,48)"/><path d=" M 191.633 320.446 C 190.325 320.988 189.297 322.042 188.787 323.363 C 188.277 324.684 188.332 326.156 188.937 327.436 C 190.086 329.941 193.011 331.088 195.557 330.032 C 198.103 328.975 199.356 326.094 198.394 323.511 C 197.206 320.805 194.469 319.297 191.633 320.516" fill="rgb(243,134,48)"/><path d=" M 245.419 276.067 C 243.552 278.543 244.231 281.559 246.688 283.406 C 247.833 284.249 249.275 284.582 250.673 284.327 C 252.072 284.071 253.304 283.251 254.078 282.058 C 254.956 281.022 255.34 279.654 255.129 278.312 C 254.918 276.969 254.133 275.785 252.979 275.068 C 251.845 274.195 250.41 273.81 248.992 273.998 C 247.573 274.185 246.288 274.93 245.419 276.067" fill="rgb(243,134,48)"/><path d=" M 265.841 282.088 C 267.738 279.862 268.654 276.963 268.379 274.051 C 268.105 271.139 266.663 268.462 264.383 266.629 C 262.193 264.713 259.312 263.779 256.414 264.047 C 253.517 264.316 250.856 265.762 249.054 268.048 C 247.16 270.275 246.246 273.174 246.521 276.085 C 246.795 278.996 248.235 281.672 250.512 283.506 C 252.702 285.423 255.583 286.356 258.481 286.088 C 261.379 285.82 264.04 284.374 265.841 282.088" fill="rgb(64,100,175)"/><path d=" M 248.695 275.987 C 248.615 271.734 249.823 267.557 252.16 264.003" fill="rgb(19,31,53)"/><path d=" M 248.695 275.987 C 248.615 271.734 249.823 267.557 252.16 264.003" fill="none" vector-effect="non-scaling-stroke" stroke-width="4.933" stroke="rgb(64,100,175)" stroke-linejoin="round" stroke-linecap="round" stroke-miterlimit="4"/><path d=" M 246.308 284.864 C 241.7 291.019 236.59 296.781 231.029 302.091 C 230.53 302.57 229.921 303.089 229.401 303.569" fill="none" vector-effect="non-scaling-stroke" stroke-width="2.966" stroke="rgb(249,162,103)" stroke-linejoin="round" stroke-linecap="round" stroke-miterlimit="4"/><path d=" M 145.746 263.384 C 141.802 262.385 137.757 261.736 133.853 260.758 C 138.436 240.366 142.461 232.636 160.516 220.902 C 163.003 224.138 165.509 227.363 167.886 230.649 C 151.878 240.955 149.201 245.229 145.746 263.384 Z " fill="rgb(64,100,175)"/><path d=" M 145.626 263.364 C 145.257 264.938 144.266 266.296 142.88 267.129 C 141.494 267.962 139.83 268.2 138.266 267.788 C 136.74 267.48 135.409 266.554 134.59 265.23 C 133.771 263.905 133.536 262.301 133.942 260.798 C 134.631 257.522 137.567 255.195 140.793 256.144 C 144.019 257.093 146.285 260.009 145.626 263.364 Z " fill="rgb(64,100,175)"/><path d=" M 167.826 230.539 C 164.85 232.458 160.924 231.947 158.539 229.331 C 156.142 226.624 157.65 222.85 160.536 220.952 C 163.422 219.055 166.897 219.344 168.934 222.061 C 170.972 224.777 170.732 228.712 167.826 230.539 Z " fill="rgb(64,100,175)"/><path d=" M 138.866 259.389 C 134.871 260.088 130.927 260.947 126.942 261.636 C 124.236 247.126 125.234 234.673 133.134 221.851 C 136.639 223.918 140.124 225.935 143.729 227.843 C 136.649 239.227 136.07 246.527 138.866 259.389 Z " fill="rgb(253,0,0)"/><path d=" M 138.636 259.459 C 139.375 262.775 137.018 265.581 133.753 266.19 C 132.261 266.504 130.706 266.193 129.451 265.328 C 128.196 264.464 127.35 263.122 127.112 261.616 C 126.744 260.187 127.028 258.667 127.888 257.467 C 128.747 256.266 130.094 255.508 131.566 255.395 C 134.731 255.015 137.907 256.144 138.636 259.459 Z " fill="rgb(253,0,0)"/><path d=" M 143.539 227.733 C 141.662 230.569 138.386 230.938 135.4 229.52 C 133.997 228.916 132.94 227.713 132.522 226.243 C 132.103 224.773 132.368 223.193 133.243 221.941 C 134.003 220.61 135.266 219.641 136.749 219.252 C 138.231 218.863 139.807 219.087 141.123 219.874 C 143.999 221.491 145.397 224.907 143.539 227.733 Z " fill="rgb(253,0,0)"/><path d=" M 143.749 263.893 C 140.583 261.347 137.278 258.97 134.142 256.394 C 147.624 239.037 156.581 233.835 178.711 238.838 C 178.262 242.932 177.712 246.996 177.103 251.071 C 159.218 246.407 154.105 249.024 143.749 263.893 Z " fill="rgb(51,203,51)"/><path d=" M 143.539 263.753 C 141.542 266.51 137.687 266.45 135.031 264.403 C 132.375 262.355 132.255 259.12 134.242 256.493 C 136.229 253.867 139.774 252.798 142.231 255.085 C 144.688 257.372 145.586 261.007 143.539 263.753 Z " fill="rgb(64,100,175)"/><path d=" M 177.163 250.821 C 173.715 249.932 171.361 246.749 171.521 243.192 C 171.631 239.547 175.356 238.199 178.691 238.947 C 182.026 239.696 184.273 242.253 183.774 245.638 C 183.275 249.024 180.578 251.7 177.163 250.821 Z " fill="rgb(51,203,51)"/><path d=" M 82.693 277.305 C 82.573 297.497 88.475 331.91 88.475 331.91 C 92.849 357.565 91.73 354.878 93.318 360.72 C 95.835 369.958 98.681 379.814 103.694 388.043 C 108.425 395.493 114.334 402.127 121.19 407.686 C 126.052 411.739 131.375 415.205 137.048 418.012 C 151.029 424.882 167.267 427.389 182.526 424.243 C 197.785 421.097 211.915 412.14 220.623 399.218 C 222.278 396.816 223.658 394.237 224.738 391.528 C 225.824 388.847 226.416 385.992 226.485 383.1 C 226.386 380.254 225.227 377.407 224.109 374.771 C 223.051 372.127 221.072 369.956 218.536 368.659 C 215.053 367.023 211.017 367.045 207.551 368.719 C 203.926 370.407 201.12 373.952 198.054 376.449 C 192.196 381.416 185.449 385.228 178.172 387.683 C 170.853 390.127 162.954 390.232 155.573 387.983 C 152.39 387.058 149.525 385.271 147.294 382.82 C 145.071 380.3 144.295 376.818 145.237 373.593 C 147.464 367.231 155.353 366.353 161.045 365.843 C 169.174 365.124 177.323 363.926 185.012 361.13 C 192.702 358.334 199.882 353.85 204.895 347.409 C 210.198 340.608 212.774 332.03 213.883 323.442 Q 214.292 320.136 214.532 316.781 C 215.79 302.8 213.983 289.318 211.686 275.757 C 211.513 273.291 211.179 270.839 210.687 268.417 C 209.52 263.575 207.534 258.968 204.815 254.796 C 202.444 250.993 198.911 248.055 194.739 246.417 C 189.067 244.42 182.845 245.858 176.973 247.126 C 161.255 250.532 145.317 252.759 129.349 254.596 C 117.255 256.014 102.316 255.345 91.471 261.726 C 86.424 264.645 83.165 269.889 82.783 275.707 C 82.703 276.446 82.693 277.035 82.693 277.305 Z " fill="rgb(10,160,217)"/><path d=" M 145.467 269.456 C 140.553 270.015 133.863 270.694 124.495 272.282 C 121.959 272.701 120.061 273.051 118.584 273.39 C 117.427 273.62 116.294 273.954 115.198 274.389 C 105.072 278.763 103.904 291.006 104.413 300.673 C 104.703 306.265 105.591 311.798 106.191 317.37 C 106.939 324.36 107.249 331.441 109.346 338.141 C 111.533 345.132 116.087 352.122 123.327 354.439 C 125.615 355.152 128.022 355.403 130.407 355.178 C 131.406 355.178 132.405 355.178 133.473 355.178 C 139.595 355.018 145.676 353.68 151.648 352.362 C 159.447 350.644 167.237 349.086 174.996 347.169 C 181.377 345.591 187.749 344.173 192.742 339.579 C 198.354 334.406 200.731 326.527 201.09 318.898 C 201.33 309.202 199.929 299.536 196.946 290.307 C 195.515 285.372 193.282 280.706 190.335 276.496 C 185.012 269.236 177.612 266.51 168.785 266.779 C 161.015 266.999 153.226 268.567 145.467 269.456 Z " fill="rgb(255,255,255)"/><g opacity="0.8"><path d=" M 169.893 393.156 C 170.342 393.236 181.577 394.284 192.862 385.107 C 204.146 375.929 207.342 371.186 212.734 371.545" fill="none" vector-effect="non-scaling-stroke" stroke-width="2.966" stroke="rgb(60,95,158)" stroke-linejoin="round" stroke-linecap="round" stroke-miterlimit="4"/></g><g opacity="0.8"><path d=" M 88.974 266.909 C 88.974 266.909 84.9 273.081 86.048 283.137 C 86.048 283.137 89.254 311.019 89.254 311.019" fill="none" vector-effect="non-scaling-stroke" stroke-width="2.966" stroke="rgb(60,95,158)" stroke-linejoin="round" stroke-linecap="round" stroke-miterlimit="4"/></g><g opacity="0.8"><path d=" M 92.08 328.674 C 92.969 334.786 94.017 340.878 95.166 346.949 C 96.883 356.047 98.162 365.574 101.747 374.182 C 105.192 382.441 111.074 389.381 116.826 396.152" fill="none" vector-effect="non-scaling-stroke" stroke-width="2.966" stroke="rgb(60,95,158)" stroke-linejoin="round" stroke-linecap="round" stroke-miterlimit="4"/></g><path d=" M 115.498 277.684 C 113.321 280.48 111.413 283.067 110.315 286.502 C 109.269 290.019 108.734 293.668 108.727 297.337 C 108.557 305.456 109.726 313.525 110.994 321.544 C 111.654 326.686 112.783 331.757 114.369 336.693 C 115.963 341.655 118.831 346.111 122.688 349.616" fill="none" vector-effect="non-scaling-stroke" stroke-width="2.966" stroke="rgb(216,216,216)" stroke-linejoin="round" stroke-linecap="round" stroke-miterlimit="4"/><line x1="176.035" y1="380.224" x2="174.716" y2="380.973"/><path d=" M 85.409 314.034 C 88.754 315.582 92.17 316.91 95.575 318.319 C 83.751 336.723 68.672 345.991 58.007 367.042 C 54.701 365.614 51.546 363.816 48.35 362.178 C 58.406 340.308 73.376 332.359 85.409 314.034 Z " fill="rgb(243,134,48)"/><path d=" M 85.799 314.184 C 86.251 312.9 87.237 311.874 88.502 311.37 C 89.767 310.867 91.188 310.935 92.399 311.558 C 93.675 312.041 94.7 313.019 95.242 314.27 C 95.784 315.521 95.796 316.938 95.276 318.199 C 94.277 321.015 91.561 321.654 88.954 320.476 C 86.348 319.297 84.63 317 85.799 314.184" fill="rgb(243,134,48)"/><path d=" M 48.719 362.278 C 50.098 359.492 52.644 358.823 55.5 360.061 C 58.356 361.3 59.075 364.056 57.787 366.842 C 57.317 368.085 56.316 369.053 55.059 369.482 C 53.801 369.911 52.417 369.756 51.286 369.059 C 48.64 367.731 47.341 365.064 48.719 362.278 Z " fill="rgb(243,134,48)"/><path d=" M 63.19 377.038 C 62.114 379.664 60.016 381.738 57.378 382.784 C 54.741 383.829 51.791 383.756 49.209 382.58 C 43.566 380.274 40.98 374.821 43.437 369.119 C 45.893 363.417 51.615 361.479 57.348 363.357 C 63.08 365.234 65.536 371.516 63.15 377.038" fill="rgb(64,100,175)"/><path d=" M 49.988 365.094 C 46.377 367.163 43.3 370.045 41 373.513" fill="rgb(19,31,53)"/><path d=" M 49.988 365.094 C 46.377 367.163 43.3 370.045 41 373.513" fill="none" vector-effect="non-scaling-stroke" stroke-width="4.933" stroke="rgb(64,100,175)" stroke-linejoin="round" stroke-linecap="round" stroke-miterlimit="4"/><path d=" M 56.519 358.873 C 58.944 352.327 62.803 346.407 67.813 341.547 L 69.221 340.179" fill="none" vector-effect="non-scaling-stroke" stroke-width="2.966" stroke="rgb(249,162,103)" stroke-linejoin="round" stroke-linecap="round" stroke-miterlimit="4"/><circle vector-effect="non-scaling-stroke" cx="168.03563732239087" cy="306.04539579623344" r="13.50146857254748" fill="rgb(64,100,175)"/><circle vector-effect="non-scaling-stroke" cx="176.03465827402593" cy="304.4575751578939" r="6.610926179753278" fill="rgb(255,255,255)"/></g><g><path d=" M 202.404 223.296 L 260.779 213.175 L 298.155 428.751 L 239.779 438.872 L 202.404 223.296 Z " fill="rgb(78,100,171)"/><path d=" M 260.375 214.52 L 222.119 167.461 L 202 224.641 L 260.375 214.52 Z " fill="rgb(225,207,181)"/><path d=" M 236.568 184.923 L 222.191 167.219 L 214.677 188.718 L 236.568 184.923 Z " fill="rgb(41,41,73)"/><path d=" M 252.219 468.022 L 295.524 460.514 C 299.649 459.799 302.492 455.842 301.708 451.697 L 297.74 430.13 L 239.365 440.251 L 243.333 461.818 C 244.048 465.942 248.005 468.785 252.15 468.001 L 252.219 468.022 Z " fill="rgb(181,183,184)"/><path d=" M 239.365 440.251 L 297.74 430.13 L 295.822 419.254 L 237.433 428.92 L 239.365 440.251 Z " fill="rgb(255,255,255)"/></g></g></svg>