<svg xmlns="http://www.w3.org/2000/svg" viewBox="0 0 230.2 255.35"><defs><style>.cls-1{fill:#f38630;}.cls-10,.cls-11,.cls-2,.cls-5{fill:none;stroke-linecap:round;stroke-linejoin:round;}.cls-2{stroke:#f9a267;}.cls-10,.cls-11,.cls-2{stroke-width:2.97px;}.cls-3{fill:#4064af;}.cls-4{fill:#131f35;}.cls-5{stroke:#4064af;stroke-width:4.94px;}.cls-6{fill:#fd0000;}.cls-7{fill:#33cb33;}.cls-8{fill:#0aa0d9;}.cls-9{fill:#fff;}.cls-10{stroke:#3c5f9e;opacity:0.8;}.cls-11{stroke:#d8d8d8;}.cls-12{fill:#ff0606;}</style></defs><title>EeeBee_standing</title><g id="Layer_2" data-name="Layer 2"><g id="Layer_1-2" data-name="Layer 1"><path class="cls-1" d="M148.38,236.77c3.91,0,7.81.07,11.72.06-1.13-14.62-1-29.23-1-43.9-3.94.13-7.86.2-11.78.55.52,14.39,1,28.89,1.08,43.29"/><path class="cls-1" d="M148.59,236.8a5.5,5.5,0,0,0,5.73,5.65,5.4,5.4,0,0,0,5.59-5.6,5.79,5.79,0,0,0-5.73-5.8c-3.3-.1-5.5,2.48-5.59,5.75"/><path class="cls-1" d="M147.5,193.44a5.7,5.7,0,0,0,5.91,5.62,5.77,5.77,0,0,0,5.5-6.13,5.71,5.71,0,0,0-11.41.51"/><path class="cls-2" d="M155.45,202.45c-.18,4.26,0,8.63.17,12.87s.21,8.34.45,12.55"/><path class="cls-3" d="M152.51,254.09l24.82-.62a5.9,5.9,0,0,0,5.75-6l-.17-7a5.92,5.92,0,0,0-6-5.75l-24.82.62a5.92,5.92,0,0,0-5.75,6.05l.17,6.94a5.93,5.93,0,0,0,6,5.75"/><path class="cls-3" d="M162.15,238.94a14.9,14.9,0,1,0,14.53-15.27,14.91,14.91,0,0,0-14.53,15.27"/><path class="cls-1" d="M108.35,238c-3.9,0-7.81.08-11.72.08,1.1-14.62,1-29.23.93-43.9,3.94.12,7.86.18,11.78.53-.49,14.39-.94,28.89-1,43.29"/><path class="cls-1" d="M108.14,238.05a5.49,5.49,0,0,1-5.72,5.66,5.39,5.39,0,0,1-5.59-5.59,5.78,5.78,0,0,1,5.71-5.81c3.3-.1,5.51,2.47,5.6,5.74"/><path class="cls-1" d="M109.14,194.69a5.7,5.7,0,0,1-5.9,5.63,5.78,5.78,0,0,1-5.51-6.12,5.71,5.71,0,0,1,11.41.49"/><path class="cls-2" d="M101.2,203.71c.19,4.27,0,8.64-.14,12.88s-.19,8.34-.41,12.55"/><path class="cls-3" d="M104.26,255.35l-24.82-.57a5.91,5.91,0,0,1-5.77-6l.16-6.94a5.92,5.92,0,0,1,6-5.77l24.83.57a5.91,5.91,0,0,1,5.76,6l-.16,7a5.92,5.92,0,0,1-6,5.76"/><path class="cls-3" d="M94.59,240.22A14.91,14.91,0,1,1,80,225a14.9,14.9,0,0,1,14.56,15.24"/><path class="cls-1" d="M153.23,101.33c1.38,3.36,2.74,6.73,4.11,10.09,24.35-10.3,42.94-27.24,58.64-48.29q-4.46-3.14-9-6.2c-16.33,19.65-29.61,34.52-53.79,44.4"/><path class="cls-1" d="M153.3,101.52a5.18,5.18,0,0,0-2.7,7,5.13,5.13,0,0,0,9.47-3.93c-1.19-2.71-3.93-4.22-6.77-3"/><path class="cls-1" d="M207.16,57.08c-1.87,2.48-1.19,5.5,1.27,7.35a5.17,5.17,0,0,0,7.4-1.35,4.68,4.68,0,0,0-1.1-7,5.39,5.39,0,0,0-7.57,1"/><path class="cls-3" d="M227.61,63.11a10.84,10.84,0,0,0-1.46-15.48,10.63,10.63,0,0,0-15.35,1.42,10.85,10.85,0,0,0,1.46,15.48,10.63,10.63,0,0,0,15.35-1.42"/><path class="cls-4" d="M210.44,57a21.12,21.12,0,0,1,3.47-12"/><path class="cls-5" d="M210.44,57a21.12,21.12,0,0,1,3.47-12"/><path class="cls-2" d="M208.05,65.89a139.17,139.17,0,0,1-15.3,17.25c-.5.48-1.11,1-1.63,1.48"/><path class="cls-3" d="M107.35,44.38c-3.95-1-8-1.65-11.91-2.63,4.59-20.42,8.62-28.16,26.7-39.91,2.49,3.24,5,6.47,7.38,9.76C113.49,21.92,110.81,26.2,107.35,44.38Z"/><path class="cls-3" d="M107.23,44.36a6,6,0,0,1-7.37,4.43,5.64,5.64,0,0,1-4.33-7c.69-3.28,3.63-5.61,6.86-4.66S107.89,41,107.23,44.36Z"/><path class="cls-3" d="M129.46,11.49a7.26,7.26,0,0,1-9.3-1.21c-2.4-2.71-.89-6.49,2-8.39S128.53.28,130.57,3,132.37,9.66,129.46,11.49Z"/><path class="cls-6" d="M100.46,40.38c-4,.7-7.95,1.56-11.94,2.25-2.71-14.53-1.71-27,6.2-39.84,3.51,2.07,7,4.09,10.61,6C98.24,20.19,97.66,27.5,100.46,40.38Z"/><path class="cls-6" d="M100.23,40.45c.74,3.32-1.62,6.13-4.89,6.74a5.57,5.57,0,0,1-6.65-4.58,5,5,0,0,1,4.46-6.23C96.32,36,99.5,37.13,100.23,40.45Z"/><path class="cls-6" d="M105.14,8.68c-1.88,2.84-5.16,3.21-8.15,1.79a5.09,5.09,0,0,1-2.16-7.59A5.71,5.71,0,0,1,102.72.81C105.6,2.43,107,5.85,105.14,8.68Z"/><path class="cls-7" d="M105.35,44.89c-3.17-2.55-6.48-4.93-9.62-7.51C109.23,20,118.2,14.79,140.36,19.8c-.45,4.1-1,8.17-1.61,12.25C120.84,27.38,115.72,30,105.35,44.89Z"/><path class="cls-3" d="M105.14,44.75c-2,2.76-5.86,2.7-8.52.65s-2.78-5.29-.79-7.92,5.54-3.7,8-1.41S107.19,42,105.14,44.75Z"/><path class="cls-7" d="M138.81,31.8a7.54,7.54,0,0,1-5.65-7.64c.11-3.65,3.84-5,7.18-4.25s5.59,3.31,5.09,6.7S142.23,32.68,138.81,31.8Z"/><path class="cls-8" d="M44.21,58.32C44.09,78.54,50,113,50,113c4.38,25.69,3.26,23,4.85,28.85,2.52,9.25,5.37,19.12,10.39,27.36a81.73,81.73,0,0,0,17.52,19.67,80.64,80.64,0,0,0,15.88,10.34c14,6.88,30.26,9.39,45.54,6.24s29.43-12.12,38.15-25.06a39.06,39.06,0,0,0,4.12-7.7,24,24,0,0,0,1.75-8.44c-.1-2.85-1.26-5.7-2.38-8.34a11.79,11.79,0,0,0-5.58-6.12,12.79,12.79,0,0,0-11,.06c-3.63,1.69-6.44,5.24-9.51,7.74a60.88,60.88,0,0,1-19.91,11.25,37.21,37.21,0,0,1-22.63.3,18,18,0,0,1-8.29-5.17,9.81,9.81,0,0,1-2.06-9.24c2.23-6.37,10.13-7.25,15.83-7.76,8.14-.72,16.3-1.92,24-4.72s14.89-7.29,19.91-13.74c5.31-6.81,7.89-15.4,9-24q.41-3.31.65-6.67c1.26-14-.55-27.5-2.85-41.08a57,57,0,0,0-1-7.35,43.77,43.77,0,0,0-5.88-13.64,20.88,20.88,0,0,0-10.09-8.39c-5.68-2-11.91-.56-17.79.71-15.74,3.41-31.7,5.64-47.69,7.48C78.82,37,63.86,36.33,53,42.72a17.5,17.5,0,0,0-8.7,14C44.22,57.46,44.21,58.05,44.21,58.32Z"/><path class="cls-9" d="M107.07,50.46c-4.92.56-11.62,1.24-21,2.83-2.54.42-4.44.77-5.92,1.11a19.48,19.48,0,0,0-3.39,1c-10.14,4.38-11.31,16.64-10.8,26.32.29,5.6,1.18,11.14,1.78,16.72.75,7,1.06,14.09,3.16,20.8,2.19,7,6.75,14,14,16.32a18.1,18.1,0,0,0,7.09.74c1,0,2,0,3.07,0,6.13-.16,12.22-1.5,18.2-2.82,7.81-1.72,15.61-3.28,23.38-5.2,6.39-1.58,12.77-3,17.77-7.6,5.62-5.18,8-13.07,8.36-20.71a86.15,86.15,0,0,0-4.15-28.63A46.87,46.87,0,0,0,152,57.51c-5.33-7.27-12.74-10-21.58-9.73C122.64,48,114.84,49.57,107.07,50.46Z"/><path class="cls-10" d="M131.53,174.33c.45.08,11.7,1.13,23-8.06s14.5-13.94,19.9-13.58"/><path class="cls-10" d="M50.5,47.91s-4.08,6.18-2.93,16.25,3.21,27.92,3.21,27.92"/><path class="cls-10" d="M53.61,109.76c.89,6.12,1.94,12.22,3.09,18.3,1.72,9.11,3,18.65,6.59,27.27,3.45,8.27,9.34,15.22,15.1,22"/><path class="cls-11" d="M77.06,58.7c-2.18,2.8-4.09,5.39-5.19,8.83a38.34,38.34,0,0,0-1.59,10.85c-.17,8.13,1,16.21,2.27,24.24a84.92,84.92,0,0,0,3.38,15.17,29.8,29.8,0,0,0,8.33,12.94"/><path class="cls-12" d="M137.68,161.38l-1.32.75A9.41,9.41,0,0,1,137.68,161.38Z"/><path class="cls-1" d="M46.93,95.1c3.35,1.55,6.77,2.88,10.18,4.29-11.84,18.43-26.94,27.71-37.62,48.79-3.31-1.43-6.47-3.23-9.67-4.87,10.07-21.9,25.06-29.86,37.11-48.21"/><path class="cls-1" d="M47.32,95.25a4.72,4.72,0,0,1,6.61-2.63,5.05,5.05,0,0,1,2.88,6.65c-1,2.82-3.72,3.46-6.33,2.28s-4.33-3.48-3.16-6.3"/><path class="cls-1" d="M10.19,143.41c1.38-2.79,3.93-3.46,6.79-2.22s3.58,4,2.29,6.79a4.46,4.46,0,0,1-6.51,2.22c-2.65-1.33-3.95-4-2.57-6.79"/><path class="cls-3" d="M24.68,158.19a10.45,10.45,0,0,1-14,5.55c-5.65-2.31-8.24-7.77-5.78-13.48s8.19-7.65,13.93-5.77,8.2,8.17,5.81,13.7"/><path class="cls-4" d="M11.46,146.23a26.76,26.76,0,0,0-9,8.43"/><path class="cls-5" d="M11.46,146.23a26.76,26.76,0,0,0-9,8.43"/><path class="cls-2" d="M18,140a46.86,46.86,0,0,1,11.31-17.35l1.41-1.37"/><circle class="cls-3" cx="129.67" cy="87.1" r="13.52"/><circle class="cls-9" cx="137.68" cy="85.51" r="6.62"/></g></g></svg>