<?xml version="1.0" encoding="UTF-8" standalone="no"?>
<svg
   xmlns:dc="http://purl.org/dc/elements/1.1/"
   xmlns:cc="http://creativecommons.org/ns#"
   xmlns:rdf="http://www.w3.org/1999/02/22-rdf-syntax-ns#"
   xmlns:svg="http://www.w3.org/2000/svg"
   xmlns="http://www.w3.org/2000/svg"
   xmlns:sodipodi="http://sodipodi.sourceforge.net/DTD/sodipodi-0.dtd"
   xmlns:inkscape="http://www.inkscape.org/namespaces/inkscape"
   viewBox="0 0 214.41 290.4"
   version="1.1"
   id="svg100"
   sodipodi:docname="sad.svg"
   inkscape:version="0.92.3 (d244b95, 2018-08-02)">
  <metadata
     id="metadata104">
    <rdf:RDF>
      <cc:Work
         rdf:about="">
        <dc:format>image/svg+xml</dc:format>
        <dc:type
           rdf:resource="http://purl.org/dc/dcmitype/StillImage" />
      </cc:Work>
    </rdf:RDF>
  </metadata>
  <sodipodi:namedview
     pagecolor="#ffffff"
     bordercolor="#666666"
     borderopacity="1"
     objecttolerance="10"
     gridtolerance="10"
     guidetolerance="10"
     inkscape:pageopacity="0"
     inkscape:pageshadow="2"
     inkscape:window-width="1920"
     inkscape:window-height="988"
     id="namedview102"
     showgrid="false"
     inkscape:zoom="0.81267219"
     inkscape:cx="107.205"
     inkscape:cy="145.2"
     inkscape:window-x="0"
     inkscape:window-y="25"
     inkscape:window-maximized="1"
     inkscape:current-layer="Layer_1-2" />
  <defs
     id="defs4">
    <style
       id="style2">.cls-1,.cls-5,.cls-9{fill:none;}.cls-1{stroke:#a5a5a5;stroke-width:4.79px;}.cls-1,.cls-4,.cls-5,.cls-9{stroke-linecap:round;stroke-linejoin:round;}.cls-2{fill:#f38630;}.cls-3{fill:#4064af;}.cls-4{fill:#131f35;stroke:#4064af;stroke-width:6.06px;}.cls-5{stroke:#f9a267;stroke-width:3.64px;}.cls-6{fill:#33cb33;}.cls-7{fill:#0aa0d9;}.cls-8{fill:#fff;}.cls-9{stroke:#3c5f9e;stroke-width:4.04px;}.cls-10{fill:#fd0000;}.cls-11{fill:#3c5f9e;}</style>
  </defs>
  <title
     id="title6">EeeBee_sad</title>
  <g
     id="Layer_2"
     data-name="Layer 2">
    <g
       id="Layer_1-2"
       data-name="Layer 1">
      <g
         id="g310">
        <path
           id="path8"
           d="M18.7,86.07c-4.13,2.83-9.47,7.34-9,12.25.63,6.59,11.11,7.46,13.25,15.25,1.95,7.12-5.7,10.38-8.75,22-3.36,12.81,4.5,14.35,3.5,32-.72,12.68-5,16.19-5.5,32.75a97.47,97.47,0,0,0,.5,13.25"
           class="cls-1" />
        <path
           id="path10"
           d="M195.34,4.15c-4.13,2.83-9.47,7.33-9,12.25.63,6.59,11.11,7.45,13.25,15.25,1.95,7.12-5.7,10.38-8.75,22-3.36,12.8,4.5,14.34,3.5,32-.72,12.67-5,16.18-5.5,32.75a99.31,99.31,0,0,0,.5,13.25"
           class="cls-1" />
        <path
           id="path12"
           d="M55.94,2.4c-6.55,10.63-13.36,25.79-8.5,40,3.24,9.46,8.71,9.88,10.5,18.5,3.54,17-15.54,26.17-15.5,45.5,0,6.49,2.19,15.76,12.5,27"
           class="cls-1" />
        <path
           id="path14"
           d="M209.58,98.21c-6.56,10.63-13.36,25.8-8.5,40,3.24,9.46,8.71,9.88,10.5,18.5,3.54,17-15.55,26.17-15.5,45.5,0,6.49,2.19,15.76,12.5,27"
           class="cls-1" />
        <path
           id="path16"
           d="M165.58,131.65c-2.44,2.72-4.81,5.51-7.14,8.32,15.69,15.7,41.33,41.22,17.45,59.41,3.76,1,7.52,2.38,11.36,2.92C211.88,178.9,182.81,148.93,165.58,131.65Z"
           class="cls-2" />
        <path
           id="path18"
           d="M165.32,132c-1.94-2.16-4.41-2-6.27.16a5.68,5.68,0,0,0-.27,7.52c1.95,2.3,4.72,1.93,6.7-.26A5.44,5.44,0,0,0,165.32,132Z"
           class="cls-2" />
        <path
           id="path20"
           d="M186.89,202.36c2.23-2,2.86-4.15-.44-4.58s-7.49-.39-10,1.77-1.63,4.34,1.38,5.2A10.41,10.41,0,0,0,186.89,202.36Z"
           class="cls-2" />
        <path
           id="path22"
           d="M165.73,201.35c-3.35,5.74.28,11.22,5.46,14.23s10.54.69,13.38-4.34,4.1-10.3-1.76-12.77S169.07,195.61,165.73,201.35Z"
           class="cls-3" />
        <path
           id="path24"
           d="M184.63,203.32a74,74,0,0,1-1.49,12.58"
           class="cls-4" />
        <path
           id="path26"
           d="M186.28,172.49c4,9,6.09,16.25-1.79,23.72"
           class="cls-5" />
        <path
           id="path28"
           d="M39.91,134.21c3,2,5.86,4.15,8.74,6.28C34,161.8,23.16,182.32,16.13,206.77a38.54,38.54,0,0,0-7.93-6.32C11.45,177.36,25.85,153.34,39.91,134.21Z"
           class="cls-2" />
        <path
           id="path30"
           d="M40.3,134.52a4.14,4.14,0,0,1,6.32-1.12c2.28,1.66,3.12,4.36,1.55,6.84s-4.39,2.77-6.76,1.12A4.75,4.75,0,0,1,40.3,134.52Z"
           class="cls-2" />
        <path
           id="path32"
           d="M8.43,200.79c.44-2.45,1.32-4.08,4-2.54a7.28,7.28,0,0,1,3.37,8.09c-.91,3.12-3.12,4.11-5.29,2.13S8,203.24,8.43,200.79Z"
           class="cls-2" />
        <path
           id="path34"
           d="M18.54,217.11c-2.88,5.55-9.3,5.44-14.2,2.53s-5.44-8.36-2.67-12.76,6.8-8,12.35-5.78S21.41,211.55,18.54,217.11Z"
           class="cls-3" />
        <path
           id="path36"
           d="M15.48,207.7c.41,4,1.79,4.22,1.37,10.93"
           class="cls-4" />
        <path
           id="path38"
           d="M22.85,170.45c-5.46,7.1-7,14.91-9.56,22.58"
           class="cls-5" />
        <ellipse
           id="ellipse40"
           ry="7.26"
           rx="7.99"
           cy="84.14"
           cx="91.89"
           class="cls-6" />
        <rect
           id="rect42"
           height="46.65"
           width="12.87"
           y="222.42"
           x="75.08"
           class="cls-2" />
        <circle
           id="circle44"
           r="6.43"
           cy="269.07"
           cx="81.51"
           class="cls-2" />
        <circle
           id="circle46"
           r="6.43"
           cy="222.42"
           cx="81.51"
           class="cls-3" />
        <rect
           id="rect48"
           height="46.65"
           width="12.87"
           y="223.41"
           x="139.96"
           class="cls-2" />
        <circle
           id="circle50"
           r="6.43"
           cy="270.06"
           cx="146.39"
           class="cls-2" />
        <circle
           id="circle52"
           r="6.43"
           cy="223.41"
           cx="146.39"
           class="cls-3" />
        <line
           id="line54"
           y2="251.88"
           x2="79.36"
           y1="228.88"
           x1="79.36"
           class="cls-5" />
        <line
           id="line56"
           y2="255.71"
           x2="143.04"
           y1="232.71"
           x1="143.04"
           class="cls-5" />
        <rect
           id="rect58"
           ry="6.48"
           rx="6.48"
           height="20.59"
           width="40.24"
           y="269.81"
           x="54.5"
           class="cls-3" />
        <circle
           id="circle60"
           r="16.37"
           cy="274.03"
           cx="60.89"
           class="cls-3" />
        <rect
           id="rect62"
           transform="translate(307.12 555.39) rotate(-180)"
           ry="6.48"
           rx="6.48"
           height="20.59"
           width="40.24"
           y="267.4"
           x="133.44"
           class="cls-3" />
        <circle
           id="circle64"
           r="16.37"
           cy="271.62"
           cx="167.29"
           class="cls-3" />
        <path
           id="path66"
           d="M182.38,209.79c4.86,3.94,10.87,9.28,10.73,16.16-.14,6.7-8.57,10.75-14.35,11.44-6.48.79-13-.89-19.41-2a110.78,110.78,0,0,0-49.76,3c-16.07,4.73-32.82,9.87-49.77,8.75-13.67-.9-25.92-7.59-28.48-22-2-11.38,1.18-23,3.46-34,3-14.62,6.42-29.62,8-44.64,1.61-15.34,0-30-1.41-45.27-.61-6.37-.25-13,6.29-16.39,4.14-2.17,9.14-1.31,13.75-.54a216.54,216.54,0,0,0,79.8-1.76c5.72-1.2,11.49-2.63,17.33-2.35,12.81.61,18.86,10.3,20.87,22,1.44,8.42,1,17.11.12,25.56a244,244,0,0,0-1.08,26.37q0,14.17,1.21,28.32c.75,9,3.07,18.39,2.72,27.35"
           class="cls-7" />
        <path
           id="path68"
           d="M80.37,113.65c-4.71.86-9.41,1.75-14.12,2.62a2.8,2.8,0,0,0-2.13,1.15A2.74,2.74,0,0,0,64,119c2.14,15.81,1.19,30.7,1.19,46.57A154.4,154.4,0,0,1,63.54,188a47.33,47.33,0,0,1-2.87,8.92,1.63,1.63,0,0,0-.11,1.29,1.57,1.57,0,0,0,1,.66c4,1.36,8.25,1.65,12.44,2.08,4,.41,8.1.68,12.16.85,7,.28,13.91.28,20.86.06,3.3-.11,6.6-.32,9.9-.51,0,0,32.4-2.43,43.26,2.24a5.56,5.56,0,0,0,1.68.45,6.38,6.38,0,0,0,1.91-.11c2.44-.6-3.37-40-3.59-41.52C158,147.29,156.27,132.08,159,117c.42-2.37.93-4.85.25-7.16-2.68-9.19-21.87-3-28.12-2.39-14.59,1.52-29.15,3.37-43.69,5.3Z"
           class="cls-8" />
        <path
           id="path70"
           d="M173.59,210.5s-12.91-5.61-32.32-5.72-62.73,8.75-66.1,9.76-13.36,1.91-13.58-4.88l3.7-.73"
           class="cls-9" />
        <path
           id="path72"
           d="M46.52,98.71c3.21,22.84,5.25,42.17-.38,69.89-2,10.08-4.48,19.86-7.12,30-3.1,11.8-6.33,31.86,7.62,37.9"
           class="cls-9" />
        <path
           id="path74"
           d="M106.28,90.58c1.26-4.27,2.26-8.6,3.31-12.93,16.22,3.93,23.74,12.4,29.74,27.85Q133.12,108,127,110.62C122.28,98.77,119.27,92.63,106.28,90.58Z"
           class="cls-10" />
        <path
           id="path76"
           d="M106.32,90.19c-3.53-.65-5.34-4.37-4.39-7.86a6.08,6.08,0,0,1,7.56-4.43c3.48.78,4.73,3.71,3.63,6.79S109.85,90.84,106.32,90.19Z"
           class="cls-10" />
        <path
           id="path78"
           d="M127.32,110.51c-1.16-3.54.75-6.57,4-8.17a5.38,5.38,0,0,1,7.8,3.23,6.2,6.2,0,0,1-3.56,8.07C132.23,115,128.47,114.05,127.32,110.51Z"
           class="cls-10" />
        <path
           id="path80"
           d="M98,89.79c2.17-3.92,4.09-8,6.1-12,14.53,7.32,21.23,19.54,19,35.6-4.5-.37-8.83-1.38-13.36-1.27C111.87,100.43,109.14,95.34,98,89.79Z"
           class="cls-11" />
        <path
           id="path82"
           d="M98.14,89.36C94.6,88,94,83.94,95.62,80.74A6.17,6.17,0,0,1,104,78c3.22,1.43,4.4,4.65,2.44,7.54S101.69,90.68,98.14,89.36Z"
           class="cls-11" />
        <path
           id="path84"
           d="M109.78,112.15c.55-3.75,4.21-4.69,7.69-4.68s6.28,2.12,5.7,5.92-3.41,5.73-7.06,5.43S109.22,115.9,109.78,112.15Z"
           class="cls-11" />
        <path
           id="path86"
           d="M89.51,89.07A67,67,0,0,0,99.44,80c9.2,12.45,6.47,25.7.3,38.85-3.85-2.2-7.72-4.31-11.63-6.4C92.83,103.87,93.93,98.15,89.51,89.07Z"
           class="cls-6" />
        <path
           id="path88"
           d="M90.11,88.45c-2.54-2.62-2.14-6,.41-8.36a6.17,6.17,0,0,1,8.61.13c2.46,2.28,1.83,5-.62,7.08S92.66,91.07,90.11,88.45Z"
           class="cls-6" />
        <path
           id="path90"
           d="M88.4,112.61c2.13-3.26,5.5-3.51,8.76-1.89s4.84,5,2.62,8a6.71,6.71,0,0,1-9,2C87.51,119,86.27,115.88,88.4,112.61Z"
           class="cls-6" />
        <path
           id="path92"
           d="M87,86.11s3.36,4,3.59,4.17,2.78-3.64,2.78-3.64Z"
           class="cls-6" />
        <ellipse
           id="ellipse94"
           ry="12.08"
           rx="14.73"
           cy="168.03"
           cx="117.59"
           class="cls-3" />
        <ellipse
           id="ellipse96"
           ry="3.42"
           rx="7.22"
           cy="172.49"
           cx="117.59"
           class="cls-8" />
      </g>
    </g>
  </g>
</svg>
