
<svg xmlns="http://www.w3.org/2000/svg" xmlns:xlink="http://www.w3.org/1999/xlink" version="1.1" id="Capa_1" x="0px" y="0px" viewBox="0 0 458.71 458.71" style="enable-background:new 0 0 458.71 458.71;" xml:space="preserve">
<g>
	<path style="fill:#4DCFE0;" d="M386.09,128.522H71.576l4.702,107.102c1.045,1.567,2.09,2.612,3.135,4.18   c7.314,8.359,15.673,16.196,24.555,23.51c35.527,29.257,78.89,44.408,125.388,44.408c44.408,0,87.249-14.629,122.776-42.318   c5.747-4.702,10.971-9.404,17.241-15.673c2.612-2.612,5.224-5.224,7.314-7.837c1.045-2.09,1.567-3.657,2.612-4.702L386.09,128.522z   "/>
	<path style="fill:#4DCFE0;" d="M230.922,332.8c-53.812,0-103.967-17.763-145.241-51.722c-1.567-1.567-3.657-3.135-5.224-4.702   l7.314,148.376c0.522,8.359,7.314,14.629,15.673,14.629h249.208c8.359,0,15.151-6.269,15.673-14.629l9.927-145.763   c-2.09,1.567-3.657,3.135-5.747,4.702C332.278,315.037,282.122,332.8,230.922,332.8z"/>
</g>
<path style="fill: #ffffff;" d="M443.037,63.739h-41.273v31.347h25.6v9.404c0,47.543-16.718,92.473-47.543,128.522  c-1.045,1.045-2.09,2.612-3.135,3.657c-2.612,2.612-4.702,5.224-7.314,7.837c-6.269,6.269-11.494,10.971-17.241,15.673  c-35.527,27.69-78.367,42.318-122.776,42.318c-46.498,0-89.861-15.151-125.388-44.408c-8.882-7.314-16.718-15.151-24.555-23.51  c-1.045-1.045-2.09-2.612-3.135-3.657c-28.735-35.004-44.931-79.412-44.931-125.91v-9.404h25.6v-0.522V64.261H15.673  C6.792,64.261,0,71.053,0,79.935v25.078c0,66.873,28.735,129.567,78.89,172.931l0,0c1.567,1.567,3.657,3.135,5.224,4.702  c41.273,33.959,91.429,51.722,145.241,51.722c51.2,0,101.355-17.763,141.584-49.11c2.09-1.567,3.657-3.135,5.747-4.702l0,0  c4.702-4.18,9.927-8.359,14.629-13.584c43.363-43.363,67.396-100.833,67.396-161.959V79.935  C458.71,70.531,451.918,63.739,443.037,63.739z"/>
<path style="fill:#00BBD3;" d="M276.375,205.845h-94.041c-8.882,0-15.673,6.792-15.673,15.673s6.792,15.673,15.673,15.673h94.041  c8.882,0,15.673-6.792,15.673-15.673S285.257,205.845,276.375,205.845z"/>
<path style="fill:#D4E1F4;" d="M51.722,95.608v22.465c0,8.882,6.792,15.673,15.673,15.673h4.18H386.09h0.522h4.702  c8.882,0,15.673-6.792,15.673-15.673V95.086V63.739V35.004c0-8.882-6.792-15.673-15.673-15.673H67.396  c-8.882,0-15.673,6.792-15.673,15.673v28.735v0.522v30.824V95.608z"/>
<g>
</g>
<g>
</g>
<g>
</g>
<g>
</g>
<g>
</g>
<g>
</g>
<g>
</g>
<g>
</g>
<g>
</g>
<g>
</g>
<g>
</g>
<g>
</g>
<g>
</g>
<g>
</g>
<g>
</g>
</svg>
