<svg viewBox="0 -3 512.001 512" xmlns="http://www.w3.org/2000/svg"><path d="m502.933594 506.769531h-493.867188c-5.007812 0-9.066406-4.058593-9.066406-9.066406v-25.484375c0-5.007812 4.058594-9.066406 9.066406-9.066406h493.867188c5.007812 0 9.066406 4.058594 9.066406 9.066406v25.484375c0 5.007813-4.058594 9.066406-9.066406 9.066406zm0 0" fill="#58b78c"/><path d="m30.90625 497.703125v-25.484375c0-5.007812 4.058594-9.066406 9.066406-9.066406h-30.90625c-5.007812 0-9.066406 4.058594-9.066406 9.066406v25.484375c0 5.007813 4.058594 9.066406 9.066406 9.066406h30.90625c-5.007812 0-9.066406-4.058593-9.066406-9.066406zm0 0" fill="#46926f"/><path d="m25.03125 190.136719h461.9375v272.734375h-461.9375zm0 0" fill="#d9d7d8"/><g fill="#78b7d2"><path d="m391.117188 402.617188h-19.257813c-4.273437 0-7.734375-3.464844-7.734375-7.734376v-164.890624c0-4.269532 3.460938-7.734376 7.734375-7.734376h19.257813c4.273437 0 7.734374 3.464844 7.734374 7.734376v164.890624c0 4.269532-3.460937 7.734376-7.734374 7.734376zm0 0"/><path d="m452.402344 402.617188h-19.257813c-4.273437 0-7.734375-3.464844-7.734375-7.734376v-164.890624c0-4.269532 3.460938-7.734376 7.734375-7.734376h19.257813c4.273437 0 7.734375 3.464844 7.734375 7.734376v164.890624c.003906 4.269532-3.460938 7.734376-7.734375 7.734376zm0 0"/><path d="m78.855469 402.617188h-19.257813c-4.273437 0-7.734375-3.464844-7.734375-7.734376v-164.890624c0-4.269532 3.460938-7.734376 7.734375-7.734376h19.257813c4.273437 0 7.734375 3.464844 7.734375 7.734376v164.890624c0 4.269532-3.460938 7.734376-7.734375 7.734376zm0 0"/><path d="m140.140625 402.617188h-19.257813c-4.273437 0-7.734374-3.464844-7.734374-7.734376v-164.890624c0-4.269532 3.460937-7.734376 7.734374-7.734376h19.257813c4.273437 0 7.734375 3.464844 7.734375 7.734376v164.890624c.003906 4.269532-3.460938 7.734376-7.734375 7.734376zm0 0"/></g><path d="m422.429688 125.597656c-1.746094-1.75-4.121094-2.730468-6.589844-2.730468h-319.675782c-2.472656 0-4.84375.980468-6.59375 2.730468l-64.539062 64.539063h461.9375zm0 0" fill="#fa9f6a"/><path d="m128.917969 122.867188h-32.753907c-2.472656 0-4.84375.980468-6.59375 2.730468l-64.539062 64.539063h32.757812l64.539063-64.539063c1.746094-1.75 4.117187-2.730468 6.589844-2.730468zm0 0" fill="#eb8f59"/><path d="m174.707031 79.492188h162.585938v383.378906h-162.585938zm0 0" fill="#efedee"/><path d="m256 0-81.324219 79.492188h162.648438zm0 0" fill="#fa9f6a"/><path d="m256 0-81.324219 79.492188h30.90625l65.871094-64.386719zm0 0" fill="#eb8f59"/><path d="m302.046875 161.722656c0 25.433594-20.617187 46.046875-46.046875 46.046875s-46.046875-20.613281-46.046875-46.046875c0-25.429687 20.617187-46.042968 46.046875-46.042968s46.046875 20.613281 46.046875 46.042968zm0 0" fill="#fadc60"/><path d="m228.765625 161.722656c0-22.207031 15.71875-40.738281 36.640625-45.078125-3.039062-.632812-6.183594-.964843-9.40625-.964843-25.429688 0-46.046875 20.613281-46.046875 46.042968 0 25.433594 20.617187 46.046875 46.046875 46.046875 3.222656 0 6.367188-.335937 9.40625-.964843-20.921875-4.34375-36.640625-22.875-36.640625-45.082032zm0 0" fill="#e6cb59"/><path d="m256 328.390625c-22.1875 0-40.175781 17.988281-40.175781 40.179687v94.300782h80.351562v-94.300782c0-22.191406-17.988281-40.179687-40.175781-40.179687zm0 0" fill="#596674"/><path d="m241.054688 184.171875c-1.921876 0-3.839844-.730469-5.304688-2.199219-2.929688-2.925781-2.929688-7.675781 0-10.605468l12.75-12.75v-22.597657c0-4.140625 3.359375-7.5 7.5-7.5 4.144531 0 7.5 3.359375 7.5 7.5v25.707031c0 1.988282-.789062 3.894532-2.195312 5.300782l-14.949219 14.949218c-1.464844 1.460938-3.382813 2.195313-5.300781 2.195313zm0 0" fill="#464c51"/></svg>